<svg width="1440" height="2281" viewBox="0 0 1440 2281" fill="none" xmlns="http://www.w3.org/2000/svg">
<g clip-path="url(#clip0_683_16)">
<rect width="1440" height="2281" fill="#111111"/>
<rect width="1440" height="2281" fill="#FE53BB" fill-opacity="0.04"/>
<g filter="url(#filter0_f_683_16)">
<path d="M1078.16 474.884C1079.45 480.929 1075.59 486.878 1069.54 488.164C1063.49 489.449 1057.55 485.587 1056.26 479.539C1054.98 473.488 1058.83 467.547 1064.88 466.261C1070.93 464.975 1076.88 468.835 1078.16 474.884Z" stroke="#FE53BB" stroke-width="8"/>
<path d="M1036.95 480.766L978.521 518.07C977.516 516.915 976.206 515.395 974.658 513.57C970.892 509.13 965.724 502.889 960.12 495.686C948.852 481.203 936.046 463.117 929.19 448.036C922.283 432.832 919.024 420.69 918.648 407.42C918.268 394.04 920.808 379.255 925.927 358.694L925.927 358.694C931.076 337.997 934.092 323.754 935.824 314.66C936.047 313.489 936.249 312.403 936.431 311.4L1041.51 460.848C1037.85 466.602 1036.1 473.591 1036.95 480.766Z" stroke="#FE53BB" stroke-width="8"/>
<path d="M1070.76 507.478L1108.07 565.908C1106.91 566.913 1105.39 568.223 1103.57 569.771C1099.13 573.536 1092.89 578.703 1085.69 584.306C1071.2 595.572 1053.12 608.376 1038.04 615.229C1022.83 622.139 1010.69 625.4 997.418 625.777C984.037 626.157 969.251 623.619 948.691 618.502L948.691 618.502C927.994 613.351 913.752 610.333 904.659 608.599C903.487 608.375 902.401 608.173 901.397 607.991L1050.85 502.914C1056.6 506.576 1063.58 508.327 1070.76 507.478Z" stroke="#FE53BB" stroke-width="8"/>
<path d="M1205.23 506.385C1212.14 521.589 1215.4 533.732 1215.77 547.004C1216.15 560.385 1213.61 575.172 1208.5 595.73L1208.5 595.73C1203.35 616.429 1200.33 630.671 1198.6 639.765C1198.37 640.938 1198.17 642.025 1197.99 643.03L1092.91 493.579C1096.57 487.824 1098.33 480.837 1097.48 473.662L1155.9 436.358C1156.91 437.513 1158.22 439.032 1159.77 440.856C1163.53 445.296 1168.7 451.537 1174.3 458.739C1185.57 473.221 1198.37 491.306 1205.23 506.385ZM1205.23 506.385L1208.87 504.73M1205.23 506.385C1205.23 506.385 1205.23 506.385 1205.23 506.385L1208.87 504.73M1208.87 504.73C1222.99 535.806 1222.65 555.428 1212.38 596.696L1156.64 431.14C1156.64 431.14 1194.74 473.658 1208.87 504.73Z" stroke="#FE53BB" stroke-width="8"/>
<path d="M1185.73 335.927L1185.73 335.927C1165.17 330.809 1150.38 328.27 1137 328.649C1123.73 329.026 1111.59 332.285 1096.39 339.193L1185.73 335.927ZM1185.73 335.927C1206.43 341.077 1220.67 344.095 1229.76 345.829C1230.94 346.052 1232.02 346.254 1233.03 346.437L1083.57 451.515C1077.82 447.85 1070.83 446.098 1063.66 446.948L1026.36 388.515M1185.73 335.927L1026.36 388.515M1026.36 388.515C1027.51 387.511 1029.03 386.201 1030.86 384.653C1035.3 380.888 1041.54 375.721 1048.74 370.119C1063.22 358.853 1081.31 346.049 1096.38 339.194L1026.36 388.515Z" stroke="#FE53BB" stroke-width="8"/>
</g>
<g filter="url(#filter1_f_683_16)">
<mask id="path-6-inside-1_683_16" fill="white">
<path d="M1400.76 1601.76C1401.02 1601.61 1401.27 1601.47 1401.49 1601.26C1401.62 1601.13 1401.71 1600.96 1401.82 1600.81C1401.96 1600.62 1402.13 1600.46 1402.24 1600.24L1445.87 1510.64C1446.51 1509.32 1446.32 1507.74 1445.38 1506.61C1444.51 1505.48 1442.94 1505.01 1441.53 1505.4L1398.12 1517.39C1398.02 1517.38 1397.93 1517.33 1397.83 1517.34C1397.09 1517.35 1396.44 1517.63 1395.86 1518.02L1275.21 1551.33L1229.85 1543.36L1120.74 1422.18L1216.84 1357.67C1217.97 1356.9 1218.6 1355.6 1218.49 1354.24C1218.36 1352.89 1217.52 1351.7 1216.28 1351.15L1108.65 1303.4L1072.73 1192.64C1072.32 1191.36 1071.23 1190.38 1069.89 1190.13C1068.55 1189.86 1067.18 1190.35 1066.31 1191.4L990.411 1282.26C990.288 1282.41 990.227 1282.59 990.13 1282.75C990.034 1282.91 989.937 1283.06 989.862 1283.22C989.711 1283.57 989.641 1283.93 989.606 1284.31C989.601 1284.41 989.548 1284.5 989.539 1284.6L988.26 1406.2C988.253 1407.17 988.619 1408.07 989.222 1408.74C989.808 1409.39 990.625 1409.84 991.556 1409.95L1022.74 1413.66L1023.97 1452.52L924.121 1500.35C923.063 1500.84 922.3 1501.82 922.073 1502.98C921.846 1504.14 922.175 1505.33 922.959 1506.2L937.767 1522.65L910.738 1534.63C909.639 1535.11 908.846 1536.11 908.593 1537.28C908.351 1538.45 908.682 1539.65 909.477 1540.54L909.508 1540.57L941.917 1575.76C942.497 1576.38 943.279 1576.81 944.128 1576.93L1059.73 1593.66L1087.14 1741.17C1087.27 1741.86 1087.58 1742.49 1088.03 1742.99C1088.55 1743.56 1089.22 1743.96 1090.01 1744.13C1091.47 1744.46 1092.99 1743.87 1093.85 1742.64L1197.06 1596.9L1241.48 1662.68C1241.58 1662.83 1241.69 1662.97 1241.8 1663.09C1242.25 1663.59 1242.83 1663.98 1243.53 1664.17C1243.57 1664.19 1243.61 1664.18 1243.66 1664.19C1243.76 1664.22 1243.85 1664.19 1243.94 1664.21C1244.55 1664.31 1245.15 1664.27 1245.71 1664.08C1245.81 1664.06 1245.89 1664.1 1245.97 1664.06L1400.28 1602.07C1400.3 1602.06 1400.32 1602.04 1400.34 1602.03C1400.49 1601.97 1400.61 1601.85 1400.76 1601.77L1400.76 1601.76ZM1250.31 1654.27L1278.39 1558.2L1394.21 1526.22L1395.11 1596.09L1250.31 1654.27ZM1435.54 1514.8L1402.42 1582.83L1401.66 1524.16L1435.54 1514.8ZM1133.23 1447.22L1221.07 1544.77L1069.61 1584.71L1133.23 1447.22ZM1101.83 1308.27L1111.56 1412.83L1037.61 1369.45L999.614 1289.59L1101.83 1308.27ZM1119.19 1414.22L1109.68 1312.02L1207.07 1355.23L1119.19 1414.22ZM1099.8 1300.31L1000.25 1282.12L1067.71 1201.36L1099.8 1300.31ZM995.756 1402.93L996.828 1301.13L1031.36 1373.69C1031.52 1374.01 1031.72 1374.32 1031.96 1374.58C1032.22 1374.87 1032.51 1375.11 1032.84 1375.3L1101.37 1415.51L995.756 1402.93ZM1112.78 1424.39C1112.85 1424.49 1112.86 1424.59 1112.94 1424.68L1126.05 1439.24L1032.3 1480.77L1030.21 1414.56L1112.78 1424.39ZM931.831 1504.93L1024.21 1460.69L1024.95 1484.03L944.93 1519.49L931.825 1504.93L931.831 1504.93ZM946.494 1569.74L918.516 1539.36L944.666 1527.77C945.365 1527.67 946.052 1527.43 946.621 1526.91C946.625 1526.91 946.629 1526.9 946.633 1526.9L1124.64 1448.03L1060.69 1586.24L946.494 1569.74ZM1067.2 1593.07L1218.95 1553.05L1092.84 1731.13L1067.2 1593.07ZM1229.61 1550.89L1270.64 1558.09L1243.21 1651.93L1201.65 1590.39L1229.61 1550.89Z"/>
</mask>
<path d="M1400.76 1601.76C1401.02 1601.61 1401.27 1601.47 1401.49 1601.26C1401.62 1601.13 1401.71 1600.96 1401.82 1600.81C1401.96 1600.62 1402.13 1600.46 1402.24 1600.24L1445.87 1510.64C1446.51 1509.32 1446.32 1507.74 1445.38 1506.61C1444.51 1505.48 1442.94 1505.01 1441.53 1505.4L1398.12 1517.39C1398.02 1517.38 1397.93 1517.33 1397.83 1517.34C1397.09 1517.35 1396.44 1517.63 1395.86 1518.02L1275.21 1551.33L1229.85 1543.36L1120.74 1422.18L1216.84 1357.67C1217.97 1356.9 1218.6 1355.6 1218.49 1354.24C1218.36 1352.89 1217.52 1351.7 1216.28 1351.15L1108.65 1303.4L1072.73 1192.64C1072.32 1191.36 1071.23 1190.38 1069.89 1190.13C1068.55 1189.86 1067.18 1190.35 1066.31 1191.4L990.411 1282.26C990.288 1282.41 990.227 1282.59 990.13 1282.75C990.034 1282.91 989.937 1283.06 989.862 1283.22C989.711 1283.57 989.641 1283.93 989.606 1284.31C989.601 1284.41 989.548 1284.5 989.539 1284.6L988.26 1406.2C988.253 1407.17 988.619 1408.07 989.222 1408.74C989.808 1409.39 990.625 1409.84 991.556 1409.95L1022.74 1413.66L1023.97 1452.52L924.121 1500.35C923.063 1500.84 922.3 1501.82 922.073 1502.98C921.846 1504.14 922.175 1505.33 922.959 1506.2L937.767 1522.65L910.738 1534.63C909.639 1535.11 908.846 1536.11 908.593 1537.28C908.351 1538.45 908.682 1539.65 909.477 1540.54L909.508 1540.57L941.917 1575.76C942.497 1576.38 943.279 1576.81 944.128 1576.93L1059.73 1593.66L1087.14 1741.17C1087.27 1741.86 1087.58 1742.49 1088.03 1742.99C1088.55 1743.56 1089.22 1743.96 1090.01 1744.13C1091.47 1744.46 1092.99 1743.87 1093.85 1742.64L1197.06 1596.9L1241.48 1662.68C1241.58 1662.83 1241.69 1662.97 1241.8 1663.09C1242.25 1663.59 1242.83 1663.98 1243.53 1664.17C1243.57 1664.19 1243.61 1664.18 1243.66 1664.19C1243.76 1664.22 1243.85 1664.19 1243.94 1664.21C1244.55 1664.31 1245.15 1664.27 1245.71 1664.08C1245.81 1664.06 1245.89 1664.1 1245.97 1664.06L1400.28 1602.07C1400.3 1602.06 1400.32 1602.04 1400.34 1602.03C1400.49 1601.97 1400.61 1601.85 1400.76 1601.77L1400.76 1601.76ZM1250.31 1654.27L1278.39 1558.2L1394.21 1526.22L1395.11 1596.09L1250.31 1654.27ZM1435.54 1514.8L1402.42 1582.83L1401.66 1524.16L1435.54 1514.8ZM1133.23 1447.22L1221.07 1544.77L1069.61 1584.71L1133.23 1447.22ZM1101.83 1308.27L1111.56 1412.83L1037.61 1369.45L999.614 1289.59L1101.83 1308.27ZM1119.19 1414.22L1109.68 1312.02L1207.07 1355.23L1119.19 1414.22ZM1099.8 1300.31L1000.25 1282.12L1067.71 1201.36L1099.8 1300.31ZM995.756 1402.93L996.828 1301.13L1031.36 1373.69C1031.52 1374.01 1031.72 1374.32 1031.96 1374.58C1032.22 1374.87 1032.51 1375.11 1032.84 1375.3L1101.37 1415.51L995.756 1402.93ZM1112.78 1424.39C1112.85 1424.49 1112.86 1424.59 1112.94 1424.68L1126.05 1439.24L1032.3 1480.77L1030.21 1414.56L1112.78 1424.39ZM931.831 1504.93L1024.21 1460.69L1024.95 1484.03L944.93 1519.49L931.825 1504.93L931.831 1504.93ZM946.494 1569.74L918.516 1539.36L944.666 1527.77C945.365 1527.67 946.052 1527.43 946.621 1526.91C946.625 1526.91 946.629 1526.9 946.633 1526.9L1124.64 1448.03L1060.69 1586.24L946.494 1569.74ZM1067.2 1593.07L1218.95 1553.05L1092.84 1731.13L1067.2 1593.07ZM1229.61 1550.89L1270.64 1558.09L1243.21 1651.93L1201.65 1590.39L1229.61 1550.89Z" stroke="#FE53BB" stroke-width="16" mask="url(#path-6-inside-1_683_16)"/>
</g>
<g filter="url(#filter2_f_683_16)">
<path d="M794.797 1865.75L794.797 1865.76C794.797 1865.75 794.797 1865.75 794.797 1865.75L794.797 1865.75Z" stroke="#FE53BB" stroke-width="8"/>
<mask id="path-8-inside-2_683_16" fill="white">
<path d="M770.825 1957.77C769.931 1958.41 768.739 1958.67 767.583 1958.34L674.269 1931.21C672.291 1930.63 671.153 1928.56 671.731 1926.58C672.314 1924.6 674.368 1923.47 676.362 1924.04L769.677 1951.17C771.655 1951.75 772.792 1953.82 772.214 1955.8C771.972 1956.62 771.469 1957.3 770.825 1957.77L770.825 1957.77Z"/>
</mask>
<path d="M770.825 1957.77L777.297 1953.06L772.594 1946.59L766.122 1951.29L770.825 1957.77ZM767.583 1958.34L765.35 1966.02L765.362 1966.02L765.373 1966.03L767.583 1958.34ZM674.269 1931.21L672.024 1938.89L672.035 1938.89L674.269 1931.21ZM671.731 1926.58L664.056 1924.33L664.052 1924.34L671.731 1926.58ZM676.362 1924.04L678.595 1916.36L678.584 1916.36L678.572 1916.35L676.362 1924.04ZM769.677 1951.17L771.921 1943.49L771.91 1943.49L769.677 1951.17ZM772.214 1955.8L779.887 1958.06L779.89 1958.05L779.893 1958.04L772.214 1955.8ZM770.825 1957.77L764.352 1962.47L769.055 1968.94L775.527 1964.24L770.825 1957.77ZM766.122 1951.29C767.125 1950.57 768.466 1950.27 769.793 1950.65L765.373 1966.03C769.011 1967.07 772.738 1966.26 775.527 1964.24L766.122 1951.29ZM769.817 1950.66L676.502 1923.53L672.035 1938.89L765.35 1966.02L769.817 1950.66ZM676.513 1923.53C678.764 1924.19 680.075 1926.55 679.41 1928.83L664.052 1924.34C662.232 1930.57 665.817 1937.07 672.024 1938.89L676.513 1923.53ZM679.407 1928.84C678.748 1931.08 676.385 1932.37 674.152 1931.73L678.572 1916.35C672.352 1914.56 665.88 1918.12 664.056 1924.33L679.407 1928.84ZM674.129 1931.72L767.443 1958.85L771.91 1943.49L678.595 1916.36L674.129 1931.72ZM767.432 1958.85C765.181 1958.19 763.871 1955.83 764.535 1953.55L779.893 1958.04C781.713 1951.81 778.128 1945.31 771.921 1943.49L767.432 1958.85ZM764.541 1953.53C764.816 1952.6 765.391 1951.83 766.122 1951.29L775.527 1964.24C777.548 1962.77 779.129 1960.63 779.887 1958.06L764.541 1953.53ZM777.297 1953.06L777.297 1953.06L764.352 1962.47L764.352 1962.47L777.297 1953.06Z" fill="#FE53BB" mask="url(#path-8-inside-2_683_16)"/>
<mask id="path-10-inside-3_683_16" fill="white">
<path d="M751.584 2041.46L751.504 2041.52C749.804 2042.69 747.486 2042.26 746.312 2040.56L670.328 1930.06C669.717 1929.17 669.521 1928.08 669.784 1927.03C670.05 1925.99 670.761 1925.12 671.712 1924.62L793.369 1862.51C795.205 1861.58 797.458 1862.3 798.39 1864.14C799.326 1865.97 798.524 1868.24 796.76 1869.16L678.894 1929.33L752.481 2036.33C753.623 2038 753.222 2040.27 751.583 2041.46L751.584 2041.46Z"/>
</mask>
<path d="M751.584 2041.46L756.286 2047.93L760.231 2045.07L759.491 2040.25L751.584 2041.46ZM751.504 2041.52L756.041 2048.11L756.124 2048.05L756.206 2047.99L751.504 2041.52ZM746.312 2040.56L739.721 2045.09L739.724 2045.1L746.312 2040.56ZM670.328 1930.06L663.723 1934.58L663.73 1934.59L663.737 1934.6L670.328 1930.06ZM669.784 1927.03L662.032 1925.05L662.028 1925.07L662.024 1925.08L669.784 1927.03ZM671.712 1924.62L668.074 1917.5L668.038 1917.52L668.001 1917.54L671.712 1924.62ZM793.369 1862.51L789.759 1855.37L789.745 1855.37L789.731 1855.38L793.369 1862.51ZM798.39 1864.14L791.26 1867.77L791.262 1867.77L798.39 1864.14ZM796.76 1869.16L800.397 1876.28L800.43 1876.27L800.462 1876.25L796.76 1869.16ZM678.894 1929.33L675.257 1922.21L667.136 1926.35L672.303 1933.87L678.894 1929.33ZM752.481 2036.33L759.084 2031.81L759.078 2031.81L759.073 2031.8L752.481 2036.33ZM751.583 2041.46L746.881 2034.99L742.936 2037.85L743.676 2042.67L751.583 2041.46ZM746.881 2034.99L746.801 2035.05L756.206 2047.99L756.286 2047.93L746.881 2034.99ZM746.966 2034.93C748.91 2033.59 751.571 2034.09 752.901 2036.02L739.724 2045.1C743.4 2050.43 750.699 2051.79 756.041 2048.11L746.966 2034.93ZM752.904 2036.02L676.92 1925.53L663.737 1934.6L739.721 2045.09L752.904 2036.02ZM676.933 1925.55C677.609 1926.54 677.839 1927.8 677.543 1928.98L662.024 1925.08C661.203 1928.36 661.825 1931.8 663.723 1934.58L676.933 1925.55ZM677.536 1929C677.212 1930.28 676.377 1931.21 675.423 1931.71L668.001 1917.54C665.145 1919.03 662.887 1921.7 662.032 1925.05L677.536 1929ZM675.35 1931.75L797.007 1869.63L789.731 1855.38L668.074 1917.5L675.35 1931.75ZM796.979 1869.65C794.915 1870.69 792.346 1869.9 791.26 1867.77L805.52 1860.51C802.569 1854.71 795.494 1852.47 789.759 1855.37L796.979 1869.65ZM791.262 1867.77C790.118 1865.52 791.107 1863.09 793.057 1862.07L800.462 1876.25C805.941 1873.39 808.534 1866.43 805.519 1860.51L791.262 1867.77ZM793.122 1862.03L675.257 1922.21L682.532 1936.46L800.397 1876.28L793.122 1862.03ZM672.303 1933.87L745.89 2040.86L759.073 2031.8L685.486 1924.8L672.303 1933.87ZM745.878 2040.85C744.554 2038.91 745.048 2036.32 746.881 2034.99L756.286 2047.93C761.397 2044.22 762.691 2037.09 759.084 2031.81L745.878 2040.85ZM743.676 2042.67L743.676 2042.67L759.491 2040.25L759.491 2040.24L743.676 2042.67Z" fill="#FE53BB" mask="url(#path-10-inside-3_683_16)"/>
<path d="M795.212 1866.11C795.212 1866.11 795.212 1866.11 795.211 1866.11L795.212 1866.11Z" stroke="#FE53BB" stroke-width="8"/>
<mask id="path-13-inside-4_683_16" fill="white">
<path d="M975.68 1878.78C974.041 1879.97 971.758 1879.64 970.525 1878.03L891.499 1774.98L797.699 1868.46C796.253 1869.87 793.882 1869.92 792.418 1868.45C790.963 1867 790.968 1864.63 792.43 1863.17L889.248 1766.68C890.003 1765.94 891.058 1765.54 892.129 1765.61C893.199 1765.68 894.192 1766.21 894.845 1767.06L976.458 1873.48C977.712 1875.12 977.405 1877.46 975.767 1878.71C975.74 1878.74 975.711 1878.76 975.686 1878.78L975.68 1878.78Z"/>
</mask>
<path d="M975.68 1878.78L977.946 1871.1L974.166 1869.99L970.978 1872.3L975.68 1878.78ZM970.525 1878.03L976.874 1873.17L976.873 1873.17L970.525 1878.03ZM891.499 1774.98L897.848 1770.11L892.304 1762.88L885.852 1769.31L891.499 1774.98ZM797.699 1868.46L803.287 1874.19L803.317 1874.16L803.347 1874.13L797.699 1868.46ZM792.418 1868.45L798.078 1862.8L798.071 1862.79L792.418 1868.45ZM792.43 1863.17L786.783 1857.5L786.775 1857.51L792.43 1863.17ZM889.248 1766.68L883.642 1760.98L883.621 1761L883.601 1761.02L889.248 1766.68ZM892.129 1765.61L892.67 1757.62L892.643 1757.62L892.615 1757.62L892.129 1765.61ZM894.845 1767.06L901.193 1762.19L901.185 1762.18L901.177 1762.17L894.845 1767.06ZM976.458 1873.48L982.809 1868.61L982.806 1868.61L976.458 1873.48ZM975.767 1878.71L970.903 1872.36L970.532 1872.65L970.197 1872.97L975.767 1878.71ZM975.686 1878.78L973.419 1886.45L977.199 1887.57L980.388 1885.25L975.686 1878.78ZM970.978 1872.3C972.826 1870.96 975.451 1871.31 976.874 1873.17L964.176 1882.9C968.065 1887.97 975.256 1888.97 980.382 1885.25L970.978 1872.3ZM976.873 1873.17L897.848 1770.11L885.151 1779.85L964.177 1882.9L976.873 1873.17ZM885.852 1769.31L792.052 1862.8L803.347 1874.13L897.147 1780.65L885.852 1769.31ZM792.112 1862.74C793.691 1861.2 796.337 1861.05 798.078 1862.8L786.758 1874.1C791.427 1878.78 798.815 1878.55 803.287 1874.19L792.112 1862.74ZM798.071 1862.79C799.771 1864.49 799.723 1867.19 798.086 1868.83L786.775 1857.51C782.214 1862.07 782.154 1869.51 786.764 1874.11L798.071 1862.79ZM798.077 1868.84L894.895 1772.35L883.601 1761.02L786.783 1857.5L798.077 1868.84ZM894.854 1772.39C894 1773.23 892.844 1773.66 891.643 1773.59L892.615 1757.62C889.272 1757.42 886.006 1758.65 883.642 1760.98L894.854 1772.39ZM891.588 1773.59C890.361 1773.51 889.251 1772.9 888.513 1771.95L901.177 1762.17C899.133 1759.52 896.037 1757.85 892.67 1757.62L891.588 1773.59ZM888.497 1771.93L970.11 1878.35L982.806 1868.61L901.193 1762.19L888.497 1771.93ZM970.107 1878.34C968.682 1876.48 969.024 1873.8 970.903 1872.36L980.631 1885.06C985.786 1881.12 986.743 1873.75 982.809 1868.61L970.107 1878.34ZM970.197 1872.97C970.444 1872.73 970.659 1872.56 970.787 1872.45C970.907 1872.36 971.01 1872.29 970.983 1872.31L980.388 1885.25C980.39 1885.25 980.427 1885.22 980.47 1885.19C980.516 1885.16 980.584 1885.1 980.664 1885.04C980.821 1884.92 981.063 1884.72 981.337 1884.45L970.197 1872.97ZM977.952 1871.11L977.946 1871.1L973.414 1886.45L973.419 1886.45L977.952 1871.11Z" fill="#FE53BB" mask="url(#path-13-inside-4_683_16)"/>
<mask id="path-15-inside-5_683_16" fill="white">
<path d="M718.627 2137.81C717.667 2138.5 716.385 2138.73 715.172 2138.29C713.235 2137.6 712.219 2135.46 712.918 2133.53L746.898 2038.58C747.609 2036.66 749.733 2035.63 751.673 2036.33C753.609 2037.03 754.625 2039.16 753.927 2041.1L719.947 2136.04C719.685 2136.78 719.221 2137.37 718.627 2137.81L718.627 2137.81Z"/>
</mask>
<path d="M718.627 2137.81L723.33 2144.28L729.802 2139.58L725.099 2133.1L718.627 2137.81ZM715.172 2138.29L717.889 2130.77L717.885 2130.77L715.172 2138.29ZM712.918 2133.53L720.443 2136.24L720.447 2136.23L720.45 2136.22L712.918 2133.53ZM746.898 2038.58L739.393 2035.81L739.379 2035.85L739.366 2035.89L746.898 2038.58ZM751.673 2036.33L748.949 2043.85L748.96 2043.85L751.673 2036.33ZM753.927 2041.1L746.401 2038.38L746.398 2038.39L746.395 2038.4L753.927 2041.1ZM719.947 2136.04L712.415 2133.35L712.412 2133.35L712.409 2133.36L719.947 2136.04ZM718.627 2137.81L713.925 2131.33L707.453 2136.04L712.155 2142.51L718.627 2137.81ZM713.925 2131.33C715.015 2130.54 716.499 2130.27 717.889 2130.77L712.454 2145.82C716.271 2147.2 720.319 2146.46 723.33 2144.28L713.925 2131.33ZM717.885 2130.77C720.061 2131.55 721.259 2133.98 720.443 2136.24L705.392 2130.81C703.179 2136.95 706.409 2143.64 712.458 2145.82L717.885 2130.77ZM720.45 2136.22L754.43 2041.28L739.366 2035.89L705.385 2130.83L720.45 2136.22ZM754.402 2041.35C753.638 2043.42 751.273 2044.69 748.949 2043.85L754.397 2028.81C748.194 2026.56 741.581 2029.89 739.393 2035.81L754.402 2041.35ZM748.96 2043.85C746.783 2043.07 745.585 2040.65 746.401 2038.38L761.453 2043.81C763.665 2037.67 760.436 2030.98 754.386 2028.8L748.96 2043.85ZM746.395 2038.4L712.415 2133.35L727.479 2138.74L761.459 2043.79L746.395 2038.4ZM712.409 2133.36C712.708 2132.52 713.262 2131.81 713.925 2131.33L723.33 2144.28C725.18 2142.93 726.661 2141.04 727.485 2138.72L712.409 2133.36ZM712.155 2142.51L712.155 2142.51L725.099 2133.1L725.099 2133.1L712.155 2142.51Z" fill="#FE53BB" mask="url(#path-15-inside-5_683_16)"/>
<mask id="path-17-inside-6_683_16" fill="white">
<path d="M961.051 2197.63C960.747 2197.85 960.419 2198.02 960.072 2198.14L870.389 2228.97C869.745 2229.2 869.05 2229.23 868.372 2229.09L766.311 2206.71C765.431 2206.52 764.654 2206.02 764.112 2205.29L713.43 2137C712.609 2135.9 712.464 2134.44 713.048 2133.2C713.618 2131.95 714.845 2131.13 716.207 2131.05L983.569 2114.84C984.85 2114.76 986.066 2115.35 986.816 2116.38L1009 2146.92C1010.1 2148.42 1009.91 2150.51 1008.57 2151.8L961.449 2197.3C961.323 2197.41 961.193 2197.53 961.054 2197.63L961.051 2197.63ZM868.947 2221.57L956.85 2191.35L1001.04 2148.68L981.963 2122.42L723.535 2138.09L769.273 2199.72L868.947 2221.57Z"/>
</mask>
<path d="M961.051 2197.63L965.753 2204.1L965.866 2204.02L965.975 2203.94L961.051 2197.63ZM960.072 2198.14L957.521 2190.55L957.496 2190.56L957.471 2190.57L960.072 2198.14ZM870.389 2228.97L867.788 2221.4L867.745 2221.42L867.701 2221.43L870.389 2228.97ZM868.372 2229.09L866.658 2236.9L866.68 2236.91L866.702 2236.91L868.372 2229.09ZM766.311 2206.71L768.024 2198.9L768.013 2198.89L766.311 2206.71ZM764.112 2205.29L757.688 2210.06L757.695 2210.07L764.112 2205.29ZM713.43 2137L719.854 2132.23L719.848 2132.23L713.43 2137ZM713.048 2133.2L720.287 2136.6L720.305 2136.57L720.322 2136.53L713.048 2133.2ZM716.207 2131.05L716.648 2139.04L716.67 2139.04L716.691 2139.04L716.207 2131.05ZM983.569 2114.84L984.053 2122.83L984.063 2122.83L984.072 2122.83L983.569 2114.84ZM1008.57 2151.8L1003.03 2146.03L1003.02 2146.04L1003.01 2146.05L1008.57 2151.8ZM961.449 2197.3L966.735 2203.31L966.873 2203.19L967.006 2203.06L961.449 2197.3ZM961.054 2197.63L956.352 2191.16L956.24 2191.24L956.13 2191.32L961.054 2197.63ZM868.947 2221.57L867.234 2229.38L869.426 2229.86L871.548 2229.14L868.947 2221.57ZM956.85 2191.35L959.451 2198.92L961.13 2198.34L962.407 2197.11L956.85 2191.35ZM1001.04 2148.68L1006.6 2154.44L1011.6 2149.61L1007.51 2143.98L1001.04 2148.68ZM981.963 2122.42L988.435 2117.72L985.857 2114.17L981.479 2114.44L981.963 2122.42ZM723.535 2138.09L723.051 2130.1L708.31 2131L717.111 2142.86L723.535 2138.09ZM769.273 2199.72L762.848 2204.49L764.634 2206.89L767.56 2207.54L769.273 2199.72ZM956.348 2191.16C956.711 2190.9 957.109 2190.69 957.521 2190.55L962.623 2205.72C963.728 2205.35 964.784 2204.81 965.753 2204.1L956.348 2191.16ZM957.471 2190.57L867.788 2221.4L872.99 2236.53L962.673 2205.7L957.471 2190.57ZM867.701 2221.43C868.546 2221.13 869.366 2221.12 870.042 2221.26L866.702 2236.91C868.733 2237.35 870.944 2237.26 873.078 2236.5L867.701 2221.43ZM870.085 2221.27L768.024 2198.9L764.598 2214.53L866.658 2236.9L870.085 2221.27ZM768.013 2198.89C769.038 2199.12 769.929 2199.7 770.53 2200.51L757.695 2210.07C759.379 2212.33 761.825 2213.92 764.609 2214.53L768.013 2198.89ZM770.536 2200.52L719.854 2132.23L707.006 2141.77L757.688 2210.06L770.536 2200.52ZM719.848 2132.23C720.789 2133.49 720.958 2135.18 720.287 2136.6L705.809 2129.79C703.969 2133.7 704.429 2138.31 707.012 2141.78L719.848 2132.23ZM720.322 2136.53C719.643 2138.01 718.222 2138.95 716.648 2139.04L715.766 2123.06C711.469 2123.3 707.594 2125.9 705.775 2129.87L720.322 2136.53ZM716.691 2139.04L984.053 2122.83L983.085 2106.86L715.723 2123.07L716.691 2139.04ZM984.072 2122.83C982.575 2122.92 981.178 2122.23 980.344 2121.08L993.288 2111.68C990.955 2108.47 987.125 2106.6 983.067 2106.86L984.072 2122.83ZM980.344 2121.08L1002.53 2151.62L1015.47 2142.21L993.288 2111.68L980.344 2121.08ZM1002.53 2151.62C1001.28 2149.9 1001.49 2147.51 1003.03 2146.03L1014.12 2157.57C1018.34 2153.5 1018.92 2146.95 1015.47 2142.21L1002.53 2151.62ZM1003.01 2146.05L955.892 2191.55L967.006 2203.06L1014.13 2157.55L1003.01 2146.05ZM956.163 2191.3C956.132 2191.33 956.119 2191.34 956.11 2191.34C956.102 2191.35 956.108 2191.35 956.122 2191.33C956.148 2191.31 956.23 2191.25 956.352 2191.16L965.757 2204.1C966.242 2203.75 966.638 2203.39 966.735 2203.31L956.163 2191.3ZM956.13 2191.32L956.126 2191.33L965.975 2203.94L965.979 2203.93L956.13 2191.32ZM871.548 2229.14L959.451 2198.92L954.25 2183.79L866.347 2214L871.548 2229.14ZM962.407 2197.11L1006.6 2154.44L995.484 2142.93L951.293 2185.6L962.407 2197.11ZM1007.51 2143.98L988.435 2117.72L975.491 2127.13L994.569 2153.39L1007.51 2143.98ZM981.479 2114.44L723.051 2130.1L724.019 2146.07L982.447 2130.41L981.479 2114.44ZM717.111 2142.86L762.848 2204.49L775.697 2194.95L729.959 2133.32L717.111 2142.86ZM767.56 2207.54L867.234 2229.38L870.66 2213.76L770.986 2191.91L767.56 2207.54Z" fill="#FE53BB" mask="url(#path-17-inside-6_683_16)"/>
<path d="M956.217 2193.53C956.217 2193.53 956.216 2193.53 956.216 2193.53L956.217 2193.53ZM956.351 2193L956.351 2193L956.351 2193Z" stroke="#FE53BB" stroke-width="8"/>
<mask id="path-20-inside-7_683_16" fill="white">
<path d="M920.892 2184.44C919.413 2185.51 917.326 2185.36 916.017 2184C914.592 2182.52 914.63 2180.16 916.114 2178.72L981.201 2115.88C982.657 2114.45 985.035 2114.48 986.48 2115.98C987.905 2117.46 987.867 2119.82 986.382 2121.26L921.296 2184.1C921.171 2184.23 921.031 2184.33 920.892 2184.44L920.892 2184.44Z"/>
</mask>
<path d="M920.892 2184.44L925.594 2190.91L928.275 2188.96L928.793 2185.69L920.892 2184.44ZM916.017 2184L910.249 2189.54L910.255 2189.55L916.017 2184ZM916.114 2178.72L910.558 2172.96L910.552 2172.97L910.546 2172.98L916.114 2178.72ZM981.201 2115.88L986.757 2121.63L986.777 2121.61L986.796 2121.6L981.201 2115.88ZM986.48 2115.98L992.248 2110.43L992.238 2110.42L992.228 2110.41L986.48 2115.98ZM986.382 2121.26L991.939 2127.01L991.945 2127L991.951 2127L986.382 2121.26ZM921.296 2184.1L915.739 2178.34L915.638 2178.44L915.54 2178.54L921.296 2184.1ZM920.892 2184.44L916.19 2177.96L913.509 2179.91L912.99 2183.18L920.892 2184.44ZM916.19 2177.96C917.899 2176.72 920.283 2176.9 921.778 2178.45L910.255 2189.55C914.369 2193.82 920.927 2194.3 925.594 2190.91L916.19 2177.96ZM921.785 2178.46C923.413 2180.15 923.36 2182.84 921.683 2184.46L910.546 2172.98C905.9 2177.48 905.771 2184.88 910.249 2189.54L921.785 2178.46ZM921.671 2184.48L986.757 2121.63L975.644 2110.12L910.558 2172.96L921.671 2184.48ZM986.796 2121.6C985.048 2123.31 982.339 2123.2 980.732 2121.54L992.228 2110.41C987.731 2105.77 980.265 2105.6 975.605 2110.16L986.796 2121.6ZM980.712 2121.52C979.083 2119.82 979.137 2117.14 980.814 2115.51L991.951 2127C996.597 2122.5 996.726 2115.09 992.248 2110.43L980.712 2121.52ZM980.825 2115.5L915.739 2178.34L926.853 2189.85L991.939 2127.01L980.825 2115.5ZM915.54 2178.54C915.74 2178.33 915.912 2178.18 916.022 2178.09C916.128 2178.01 916.201 2177.96 916.19 2177.96L925.594 2190.91C925.827 2190.74 926.427 2190.3 927.051 2189.65L915.54 2178.54ZM912.99 2183.18L912.99 2183.18L928.793 2185.69L928.793 2185.69L912.99 2183.18Z" fill="#FE53BB" mask="url(#path-20-inside-7_683_16)"/>
<path d="M907.12 2041.72C907.118 2041.72 907.118 2041.72 907.118 2041.72C907.118 2041.72 907.119 2041.72 907.12 2041.72Z" stroke="#FE53BB" stroke-width="8"/>
<mask id="path-23-inside-8_683_16" fill="white">
<path d="M937.271 2123.57C935.91 2124.56 934.018 2124.54 932.674 2123.4L825.736 2033.42C824.16 2032.09 823.955 2029.74 825.285 2028.17C826.631 2026.59 828.971 2026.39 830.539 2027.72L937.478 2117.7C939.06 2119.03 939.259 2121.38 937.928 2122.95C937.738 2123.19 937.511 2123.4 937.271 2123.57L937.271 2123.57Z"/>
</mask>
<path d="M937.271 2123.57L938.522 2115.67L935.249 2115.15L932.569 2117.1L937.271 2123.57ZM932.674 2123.4L937.852 2117.3L937.838 2117.29L937.825 2117.28L932.674 2123.4ZM825.736 2033.42L820.582 2039.54L820.585 2039.54L825.736 2033.42ZM825.285 2028.17L819.201 2022.97L819.19 2022.98L819.179 2023L825.285 2028.17ZM830.539 2027.72L825.375 2033.83L825.382 2033.83L825.389 2033.84L830.539 2027.72ZM937.478 2117.7L942.639 2111.58L942.629 2111.58L937.478 2117.7ZM937.928 2122.95L931.822 2117.78L931.766 2117.85L931.712 2117.92L937.928 2122.95ZM937.271 2123.57L936.02 2131.47L939.292 2131.99L941.973 2130.04L937.271 2123.57ZM932.569 2117.1C934.09 2115.99 936.288 2115.98 937.852 2117.3L927.496 2129.5C931.749 2133.11 937.729 2133.13 941.973 2130.04L932.569 2117.1ZM937.825 2117.28L830.886 2027.3L820.585 2039.54L927.523 2129.52L937.825 2117.28ZM830.889 2027.3C832.679 2028.81 832.937 2031.51 831.391 2033.33L819.179 2023C814.973 2027.97 815.64 2035.38 820.582 2039.54L830.889 2027.3ZM831.37 2033.36C829.898 2035.08 827.217 2035.38 825.375 2033.83L835.704 2021.61C830.724 2017.4 823.364 2018.1 819.201 2022.97L831.37 2033.36ZM825.389 2033.84L932.327 2123.82L942.629 2111.58L835.69 2021.59L825.389 2033.84ZM932.317 2123.81C930.538 2122.31 930.28 2119.61 931.822 2117.78L944.035 2128.12C948.237 2123.15 947.581 2115.76 942.639 2111.58L932.317 2123.81ZM931.712 2117.92C932.001 2117.56 932.297 2117.3 932.569 2117.1L941.973 2130.04C942.726 2129.5 943.476 2128.81 944.145 2127.99L931.712 2117.92ZM938.522 2115.67L938.522 2115.67L936.019 2131.47L936.02 2131.47L938.522 2115.67Z" fill="#FE53BB" mask="url(#path-23-inside-8_683_16)"/>
<mask id="path-25-inside-9_683_16" fill="white">
<path d="M888.133 2124.58C887.214 2125.25 886.001 2125.49 884.828 2125.13C882.856 2124.51 881.76 2122.42 882.384 2120.45L892.78 2087.16C893.391 2085.19 895.481 2084.09 897.464 2084.71C899.433 2085.32 900.53 2087.41 899.908 2089.39L889.512 2122.68C889.256 2123.47 888.769 2124.12 888.133 2124.58Z"/>
</mask>
<path d="M884.828 2125.13L882.449 2132.76L882.453 2132.77L884.828 2125.13ZM882.384 2120.45L890.009 2122.87L890.015 2122.85L890.021 2122.84L882.384 2120.45ZM892.78 2087.16L900.417 2089.54L900.419 2089.54L900.422 2089.53L892.78 2087.16ZM897.464 2084.71L895.077 2092.35L895.087 2092.35L895.096 2092.35L897.464 2084.71ZM899.908 2089.39L892.278 2086.98L892.275 2086.99L892.272 2087L899.908 2089.39ZM889.512 2122.68L897.124 2125.14L897.136 2125.1L897.148 2125.06L889.512 2122.68ZM883.431 2118.11C884.458 2117.36 885.854 2117.07 887.204 2117.49L882.453 2132.77C886.148 2133.92 889.97 2133.13 892.835 2131.05L883.431 2118.11ZM887.208 2117.49C889.452 2118.19 890.733 2120.59 890.009 2122.87L874.76 2118.03C872.787 2124.24 876.26 2130.84 882.449 2132.76L887.208 2117.49ZM890.021 2122.84L900.417 2089.54L885.144 2084.78L874.748 2118.07L890.021 2122.84ZM900.422 2089.53C899.718 2091.8 897.306 2093.04 895.077 2092.35L899.851 2077.07C893.657 2075.14 887.063 2078.58 885.139 2084.79L900.422 2089.53ZM895.096 2092.35C892.823 2091.65 891.569 2089.23 892.278 2086.98L907.537 2091.79C909.49 2085.6 906.044 2078.99 899.832 2077.07L895.096 2092.35ZM892.272 2087L881.876 2120.29L897.148 2125.06L907.544 2091.77L892.272 2087ZM881.9 2120.22C882.177 2119.36 882.729 2118.62 883.431 2118.11L892.835 2131.05C894.809 2129.62 896.335 2127.58 897.124 2125.14L881.9 2120.22Z" fill="#FE53BB" mask="url(#path-25-inside-9_683_16)"/>
<path d="M928.967 2003.86L928.964 2003.86L928.967 2003.86Z" stroke="#FE53BB" stroke-width="8"/>
<mask id="path-28-inside-10_683_16" fill="white">
<path d="M971.252 2119.96C970.873 2120.24 970.42 2120.46 969.932 2120.57C967.928 2121.06 965.919 2119.83 965.431 2117.82L932.443 1980.9C931.95 1978.9 933.187 1976.89 935.196 1976.4C937.2 1975.91 939.209 1977.15 939.7 1979.15L972.688 2116.07C973.057 2117.58 972.44 2119.1 971.252 2119.96L971.252 2119.96Z"/>
</mask>
<path d="M971.252 2119.96L977.724 2115.26L973.022 2108.79L966.55 2113.49L971.252 2119.96ZM969.932 2120.57L968.075 2112.79L968.064 2112.79L968.054 2112.8L969.932 2120.57ZM965.431 2117.82L957.653 2119.7L957.656 2119.71L957.659 2119.72L965.431 2117.82ZM932.443 1980.9L940.22 1979.03L940.215 1979.01L940.21 1978.99L932.443 1980.9ZM935.196 1976.4L933.317 1968.62L933.31 1968.62L935.196 1976.4ZM939.7 1979.15L947.478 1977.28L947.474 1977.26L947.47 1977.25L939.7 1979.15ZM972.688 2116.07L964.911 2117.95L964.914 2117.96L964.917 2117.97L972.688 2116.07ZM971.252 2119.96L964.78 2124.66L969.482 2131.14L975.954 2126.43L971.252 2119.96ZM966.55 2113.49C966.961 2113.19 967.466 2112.94 968.075 2112.79L971.79 2128.35C973.375 2127.98 974.784 2127.28 975.954 2126.43L966.55 2113.49ZM968.054 2112.8C970.36 2112.24 972.651 2113.67 973.203 2115.93L957.659 2119.72C959.187 2125.98 965.496 2129.87 971.811 2128.35L968.054 2112.8ZM973.208 2115.95L940.22 1979.03L924.665 1982.78L957.653 2119.7L973.208 2115.95ZM940.21 1978.99C940.79 1981.34 939.328 1983.63 937.081 1984.17L933.31 1968.62C927.046 1970.14 923.11 1976.47 924.675 1982.82L940.21 1978.99ZM937.074 1984.17C934.76 1984.73 932.479 1983.3 931.93 1981.05L947.47 1977.25C945.938 1970.99 939.64 1967.09 933.317 1968.62L937.074 1984.17ZM931.923 1981.03L964.911 2117.95L980.466 2114.2L947.478 1977.28L931.923 1981.03ZM964.917 2117.97C964.48 2116.18 965.232 2114.45 966.55 2113.49L975.954 2126.43C979.649 2123.75 981.634 2118.98 980.46 2114.17L964.917 2117.97ZM977.724 2115.26L977.724 2115.26L964.78 2124.66L964.78 2124.66L977.724 2115.26Z" fill="#FE53BB" mask="url(#path-28-inside-10_683_16)"/>
<mask id="path-30-inside-11_683_16" fill="white">
<path d="M897.051 1874.63C896.47 1875.05 895.773 1875.3 895.003 1875.34C892.944 1875.42 891.204 1873.81 891.122 1871.76L887.247 1771.21C887.168 1769.14 888.773 1767.42 890.834 1767.33C892.892 1767.26 894.633 1768.87 894.714 1770.92L898.589 1871.46C898.64 1872.76 898.025 1873.92 897.051 1874.63L897.051 1874.63Z"/>
</mask>
<path d="M897.051 1874.63L903.523 1869.92L898.821 1863.45L892.349 1868.16L897.051 1874.63ZM895.003 1875.34L895.286 1883.34L895.343 1883.34L895.4 1883.33L895.003 1875.34ZM891.122 1871.76L883.128 1872.06L883.128 1872.07L891.122 1871.76ZM887.247 1771.21L879.253 1771.52L879.253 1771.52L887.247 1771.21ZM890.834 1767.33L890.551 1759.34L890.523 1759.34L890.495 1759.34L890.834 1767.33ZM894.714 1770.92L902.708 1770.61L902.708 1770.6L894.714 1770.92ZM898.589 1871.46L890.595 1871.77L890.595 1871.78L898.589 1871.46ZM897.051 1874.63L890.579 1879.33L895.281 1885.8L901.754 1881.1L897.051 1874.63ZM892.349 1868.16C893.016 1867.67 893.813 1867.39 894.605 1867.35L895.4 1883.33C897.733 1883.22 899.923 1882.43 901.754 1881.1L892.349 1868.16ZM894.72 1867.35C897.033 1867.27 899.022 1869.06 899.116 1871.44L883.128 1872.07C883.385 1878.56 888.855 1883.57 895.286 1883.34L894.72 1867.35ZM899.116 1871.45L895.242 1770.9L879.253 1771.52L883.128 1872.06L899.116 1871.45ZM895.242 1770.91C895.332 1773.27 893.485 1775.23 891.173 1775.32L890.495 1759.34C884.061 1759.61 879.005 1765.02 879.253 1771.52L895.242 1770.91ZM891.117 1775.33C888.804 1775.41 886.815 1773.61 886.72 1771.23L902.708 1770.6C902.451 1764.12 896.981 1759.11 890.551 1759.34L891.117 1775.33ZM886.72 1771.23L890.595 1871.77L906.583 1871.15L902.708 1770.61L886.72 1771.23ZM890.595 1871.78C890.536 1870.28 891.267 1868.94 892.349 1868.16L901.754 1881.1C904.782 1878.9 906.744 1875.25 906.583 1871.15L890.595 1871.78ZM903.523 1869.92L903.523 1869.92L890.579 1879.33L890.579 1879.33L903.523 1869.92Z" fill="#FE53BB" mask="url(#path-30-inside-11_683_16)"/>
</g>
<g filter="url(#filter3_f_683_16)">
<path d="M258.112 659.246L245.482 731.265L160.957 628.197L158.42 625.104L155.327 627.641L144.681 636.372L141.588 638.909L144.125 642.001L240.523 759.548L216.13 898.644L126.643 822.337L67.1251 521.008L258.112 659.246ZM226.209 967.199L262.757 758.795L262.833 758.733L265.929 756.196L263.691 753.468L294.344 578.669L300.178 579.599L261.267 963.438L226.209 967.199ZM369.581 999.437L294.216 1007.48C314.891 985.302 349.175 948.454 385.082 909.538L383.66 908.226L383.957 906.816L384.195 906.815L386.031 908.509C389.651 904.585 393.285 900.643 396.924 896.693L394.136 894.125L396.924 896.692C427.807 863.162 458.92 829.127 482.786 802.451C494.72 789.113 504.853 777.6 512.28 768.862L512.281 768.861C513.623 767.281 514.878 765.79 516.043 764.392L611.217 911.682L539.978 981.246L374.385 998.923C374.358 998.919 374.331 998.916 374.303 998.912L374.278 998.909L374.254 998.907C373.738 998.853 373.095 998.817 372.33 998.872C371.522 998.929 370.583 999.093 369.581 999.437ZM762.469 1159.4L765.731 1161.72L768.046 1158.45L776.014 1147.23L778.329 1143.96L775.067 1141.65L561.827 990.342L627.47 926.244L723.422 980.175L892.777 1226.23L487.041 1125.36L486.752 1125.02C479.463 1116.51 457.664 1091.03 435.764 1065.51C422.341 1049.87 408.88 1034.21 398.691 1022.42C397.54 1021.09 396.43 1019.8 395.367 1018.58L541.947 1002.93L762.469 1159.4ZM581.881 826.167L823.619 567.559L624.934 892.795L581.881 826.167ZM386.584 804.763L483.006 769.41C480.24 772.559 477.287 775.899 474.169 779.408C451.131 805.335 419.193 840.342 386.939 875.398L386.584 804.763ZM302.379 557.904L237.328 547.539L305.606 526.072L302.379 557.904ZM280.419 990.357L328.206 518.966L363.318 507.927L365.289 898.888C356.878 907.998 348.579 916.971 340.551 925.639C317.86 950.139 297.317 972.222 282.446 988.181C281.758 988.92 281.082 989.645 280.419 990.357Z" stroke="#FE53BB" stroke-width="8"/>
</g>
<g filter="url(#filter4_f_683_16)">
<path d="M462.685 1686.26L462.888 1685.9C463.219 1685.31 463.104 1684.74 462.758 1684.38C462.757 1684.38 462.755 1684.38 462.754 1684.38L374.303 1594.43L373.523 1593.64L373.265 1592.55L337.742 1443.68L337.74 1443.67C337.63 1443.2 337.262 1442.84 336.868 1442.74L336.852 1442.73L336.836 1442.73C336.398 1442.6 335.911 1442.72 335.563 1443.07C335.562 1443.07 335.561 1443.07 335.559 1443.07L309.011 1469.86L305.296 1473.61L302.691 1469.02L289.398 1445.6C289.398 1445.6 289.398 1445.6 289.397 1445.6C289.191 1445.24 288.791 1444.97 288.329 1444.94C287.884 1444.92 287.476 1445.12 287.226 1445.46L287.223 1445.47L242.736 1506.45C242.511 1506.76 242.429 1507.17 242.544 1507.58C242.545 1507.58 242.545 1507.58 242.546 1507.59L280.796 1639.05L281.695 1642.15L278.867 1643.68L261.833 1652.95C261.405 1653.19 261.141 1653.65 261.162 1654.14L261.162 1654.14L263.641 1713.47L263.875 1719.08L258.5 1717.47L196.841 1699.07L196.828 1699.07C196.573 1698.99 196.258 1699 195.935 1699.14C195.933 1699.14 195.931 1699.14 195.929 1699.14L53.0677 1761.57L53.0567 1761.57C52.6559 1761.74 52.3541 1762.14 52.3042 1762.62C52.3042 1762.62 52.3042 1762.62 52.3042 1762.62L49.2536 1792.73L48.8726 1796.49L45.0968 1796.32L-26.6676 1793.14L-26.67 1793.14C-27.1494 1793.11 -27.5842 1793.36 -27.8119 1793.73L-27.8164 1793.74L-27.821 1793.74C-28.0679 1794.15 -28.0777 1794.65 -27.8511 1795.05C-27.8502 1795.06 -27.8492 1795.06 -27.8483 1795.06L37.4191 1910.9C37.4508 1910.95 37.4861 1911.01 37.523 1911.07C37.5983 1911.2 37.6856 1911.3 37.7874 1911.4C37.8621 1911.47 37.9695 1911.54 38.1034 1911.6L38.1083 1911.6L189.158 1978.86C189.541 1979.03 189.99 1979 190.351 1978.78L190.359 1978.77L190.367 1978.77C190.716 1978.56 190.948 1978.18 190.971 1977.75L190.971 1977.75L192.564 1948.76L192.772 1944.99L196.548 1944.98L243.901 1944.86L248.202 1944.85L247.901 1949.14L244.163 2002.4L462.685 1686.26ZM462.685 1686.26L462.559 1686.65M462.685 1686.26L462.559 1686.65M462.559 1686.65C462.51 1686.8 462.474 1686.94 462.447 1687.06C462.435 1687.11 462.425 1687.16 462.416 1687.21L437.176 1743.9L436.731 1744.61C436.694 1744.66 436.659 1744.72 436.631 1744.77C436.629 1744.77 436.628 1744.77 436.626 1744.77C436.621 1744.78 436.615 1744.78 436.608 1744.78C436.574 1744.8 436.535 1744.83 436.494 1744.85C436.473 1744.87 436.451 1744.88 436.429 1744.89L436.37 1744.93L436.312 1744.97C436.251 1745.01 436.195 1745.05 436.147 1745.08C436.094 1745.09 436.036 1745.09 435.961 1745.1L435.92 1745.1L435.799 1745.12L435.68 1745.14C435.571 1745.16 435.473 1745.18 435.39 1745.2L435.376 1745.2L435.306 1745.21L380.005 1745.35L377.557 1745.35M462.559 1686.65L377.557 1745.35M377.557 1745.35L376.449 1747.53M377.557 1745.35L376.449 1747.53M376.449 1747.53L246.606 2003.08C246.335 2003.61 245.724 2003.9 245.126 2003.75C245.019 2003.71 244.958 2003.69 244.927 2003.68C244.438 2003.46 244.126 2002.95 244.163 2002.4L376.449 1747.53ZM434.987 1745.3C434.987 1745.3 434.989 1745.3 434.992 1745.3L434.987 1745.3ZM377.917 1738.89L378.031 1742.78L381.925 1742.77L432.315 1742.64L434.906 1742.63L435.959 1740.27L459.207 1688.05L460.315 1685.56L458.405 1683.62L380.906 1604.81L373.756 1597.53L374.056 1607.73L377.917 1738.89ZM337.453 1453.53L335.783 1446.53L330.721 1451.64L308.775 1473.79L306.641 1475.94L308.138 1478.58L355.105 1561.27L362.474 1558.37L337.453 1453.53ZM246.366 1505.87L245.208 1507.46L245.757 1509.35L282.643 1636.11L284.031 1640.88L288.395 1638.51L367.025 1595.73L370.603 1593.78L368.591 1590.24L303.995 1476.52L303.937 1476.42L303.929 1476.4L303.916 1476.38C303.894 1476.34 303.859 1476.27 303.818 1476.2C303.817 1476.2 303.817 1476.2 303.817 1476.2L291.202 1453.99L288.143 1448.61L284.493 1453.61L246.366 1505.87ZM371.329 1602.93L371.137 1596.42L365.419 1599.54L265.976 1653.64L263.787 1654.83L263.891 1657.32L266.367 1716.66L266.497 1719.77L269.547 1720.41L370.467 1741.45L375.431 1742.49L375.282 1737.42L371.329 1602.93ZM48.1975 1803.26L48.6238 1799.05L44.3949 1798.87L-17.2518 1796.13L-24.4518 1795.82L-20.9136 1802.09L31.5796 1895.25L37.7734 1906.24L39.0441 1893.69L48.1975 1803.26ZM193.152 1938.19L192.918 1942.42L197.156 1942.41L244.678 1942.29L248.397 1942.28L248.658 1938.57L263.658 1724.98L263.883 1721.78L260.812 1720.86L197.964 1702.11L196.56 1701.69L195.218 1702.28L56.9487 1762.7L54.8063 1763.64L54.5707 1765.96L40.3151 1906.75L40.0235 1909.63L42.6677 1910.81L183.205 1973.38L188.507 1975.75L188.826 1969.95L196.922 1822.95L196.922 1822.94C196.96 1822.24 197.566 1821.69 198.275 1821.73L198.287 1821.73L198.3 1821.73C198.982 1821.77 199.536 1822.36 199.495 1823.09L199.494 1823.09L193.152 1938.19ZM248.57 1976.56L256.127 1978.65L372.47 1749.66L374.838 1745L369.72 1743.93L270.902 1723.33L266.416 1722.39L266.095 1726.96L248.57 1976.56Z" stroke="#FE53BB" stroke-width="8"/>
</g>
<path d="M226.75 329.998L411.679 -4.93588L446.344 10.4977L283.409 355.224L226.75 329.998Z" stroke="#FE53BB" stroke-width="8"/>
<path d="M538.332 468.723L663.495 107.18L628.83 91.7459L481.674 443.497L538.332 468.723Z" stroke="#FE53BB" stroke-width="8"/>
<path d="M492.771 133.337L491.145 136.991L492.771 133.337ZM321.886 57.2543L317.895 57.5194L318.055 59.9271L320.259 60.9085L321.886 57.2543ZM493.01 133.444L494.637 129.789L493.01 133.444ZM663.895 209.527L662.268 213.181L664.473 214.162L666.369 212.67L663.895 209.527ZM697.838 182.817L700.312 185.96L705.523 181.859L699.465 179.162L697.838 182.817ZM508.55 98.54L510.177 94.8858L508.55 98.54ZM508.312 98.4337L506.685 102.088L508.312 98.4337ZM319.023 14.1572L320.65 10.503L314.593 7.80599L315.032 14.4224L319.023 14.1572ZM494.398 129.683L323.513 53.6001L320.259 60.9085L491.145 136.991L494.398 129.683ZM491.145 136.991L491.383 137.098L494.637 129.789L494.398 129.683L491.145 136.991ZM491.383 137.098L662.268 213.181L665.522 205.872L494.637 129.789L491.383 137.098ZM666.369 212.67L700.312 185.96L695.365 179.673L661.422 206.383L666.369 212.67ZM699.465 179.162L510.177 94.8858L506.923 102.194L696.211 186.471L699.465 179.162ZM510.177 94.8858L509.938 94.7795L506.685 102.088L506.923 102.194L510.177 94.8858ZM317.396 17.8114L506.685 102.088L509.938 94.7795L320.65 10.503L317.396 17.8114ZM325.878 56.9892L323.015 13.8921L315.032 14.4224L317.895 57.5194L325.878 56.9892Z" fill="#FE53BB"/>
<path d="M386.577 -16.112L396.866 -39.2217L689.323 90.9884L679.034 114.098L386.577 -16.112Z" stroke="#FE53BB" stroke-width="8"/>
<path d="M370.569 -50.93L376.601 -64.4771L716.87 87.0207L710.839 100.568L370.569 -50.93Z" stroke="#FE53BB" stroke-width="8"/>
<path d="M334.366 -83.281L404.154 -77.0355L715.736 61.6896L767.871 109.728L334.366 -83.281Z" stroke="#FE53BB" stroke-width="8"/>
</g>
<defs>
<filter id="filter0_f_683_16" x="889.049" y="299.049" width="356.327" height="356.327" filterUnits="userSpaceOnUse" color-interpolation-filters="sRGB">
<feFlood flood-opacity="0" result="BackgroundImageFix"/>
<feBlend mode="normal" in="SourceGraphic" in2="BackgroundImageFix" result="shape"/>
<feGaussianBlur stdDeviation="1" result="effect1_foregroundBlur_683_16"/>
</filter>
<filter id="filter1_f_683_16" x="906.515" y="1188.06" width="541.733" height="558.16" filterUnits="userSpaceOnUse" color-interpolation-filters="sRGB">
<feFlood flood-opacity="0" result="BackgroundImageFix"/>
<feBlend mode="normal" in="SourceGraphic" in2="BackgroundImageFix" result="shape"/>
<feGaussianBlur stdDeviation="1" result="effect1_foregroundBlur_683_16"/>
</filter>
<filter id="filter2_f_683_16" x="667.67" y="1763.6" width="344.046" height="467.575" filterUnits="userSpaceOnUse" color-interpolation-filters="sRGB">
<feFlood flood-opacity="0" result="BackgroundImageFix"/>
<feBlend mode="normal" in="SourceGraphic" in2="BackgroundImageFix" result="shape"/>
<feGaussianBlur stdDeviation="1" result="effect1_foregroundBlur_683_16"/>
</filter>
<filter id="filter3_f_683_16" x="59.2295" y="500.485" width="844.828" height="734.175" filterUnits="userSpaceOnUse" color-interpolation-filters="sRGB">
<feFlood flood-opacity="0" result="BackgroundImageFix"/>
<feBlend mode="normal" in="SourceGraphic" in2="BackgroundImageFix" result="shape"/>
<feGaussianBlur stdDeviation="1" result="effect1_foregroundBlur_683_16"/>
</filter>
<filter id="filter4_f_683_16" x="-34.0137" y="1436.68" width="503.098" height="573.108" filterUnits="userSpaceOnUse" color-interpolation-filters="sRGB">
<feFlood flood-opacity="0" result="BackgroundImageFix"/>
<feBlend mode="normal" in="SourceGraphic" in2="BackgroundImageFix" result="shape"/>
<feGaussianBlur stdDeviation="1" result="effect1_foregroundBlur_683_16"/>
</filter>
<clipPath id="clip0_683_16">
<rect width="1440" height="2281" fill="white"/>
</clipPath>
</defs>
</svg>
