<svg width="1440" height="2281" fill="none" xmlns="http://www.w3.org/2000/svg">
  <path fill="#1E1E1E" d="M0 0h1440v2281H0z" />
  <g clip-path="url(#prefix__clip0_0_1)">
    <path fill="#111" d="M0 0h1440v2281H0z" />
    <path fill="#FE53BB" fill-opacity=".04" d="M0 0h1440v2281H0z" />
    <g filter="url(#prefix__filter0_f_0_1)">
      <mask id="prefix__a" fill="#fff">
        <path
          d="M1082.08 474.052c1.74 8.207-3.5 16.279-11.71 18.025-8.21 1.745-16.28-3.5-18.02-11.706-1.75-8.211 3.49-16.277 11.7-18.022 8.21-1.745 16.28 3.492 18.03 11.703z" />
      </mask>
      <path
        d="M1082.08 474.052c1.74 8.207-3.5 16.279-11.71 18.025-8.21 1.745-16.28-3.5-18.02-11.706-1.75-8.211 3.49-16.277 11.7-18.022 8.21-1.745 16.28 3.492 18.03 11.703z"
        stroke="#FE53BB" stroke-width="16" mask="url(#prefix__a)" />
      <mask id="prefix__b" fill="#fff">
        <path
          d="M1041.32 482.715c-1.7-7.989.41-15.903 5.09-21.862L934.044 301.05s-1.731 15.407-11.999 56.678c-10.275 41.273-10.615 60.886 3.504 91.964 14.127 31.075 52.233 73.595 52.233 73.595l63.538-40.567v-.005z" />
      </mask>
      <path
        d="M1041.32 482.715c-1.7-7.989.41-15.903 5.09-21.862L934.044 301.05s-1.731 15.407-11.999 56.678c-10.275 41.273-10.615 60.886 3.504 91.964 14.127 31.075 52.233 73.595 52.233 73.595l63.538-40.567v-.005h0z"
        stroke="#FE53BB" stroke-width="16" mask="url(#prefix__b)" />
      <mask id="prefix__c" fill="#fff">
        <path
          d="M1072.71 503.105c-7.99 1.699-15.9-.406-21.86-5.083L891.049 610.376s15.404 1.736 56.676 12.007c41.272 10.272 60.885 10.612 91.965-3.512 31.08-14.123 73.59-52.224 73.59-52.224l-40.57-63.542z" />
      </mask>
      <path
        d="M1072.71 503.105c-7.99 1.699-15.9-.406-21.86-5.083L891.049 610.376s15.404 1.736 56.676 12.007c41.272 10.272 60.885 10.612 91.965-3.512 31.08-14.123 73.59-52.224 73.59-52.224l-40.57-63.542z"
        stroke="#FE53BB" stroke-width="16" mask="url(#prefix__c)" />
      <mask id="prefix__d" fill="#fff">
        <path
          d="M1093.1 471.708c1.7 7.99-.4 15.904-5.08 21.867l112.35 159.801s1.74-15.405 12.01-56.68c10.27-41.268 10.61-60.89-3.51-91.966-14.13-31.072-52.23-73.59-52.23-73.59l-63.54 40.568z" />
      </mask>
      <path
        d="M1093.1 471.708c1.7 7.99-.4 15.904-5.08 21.867l112.35 159.801s1.74-15.405 12.01-56.68c10.27-41.268 10.61-60.89-3.51-91.966-14.13-31.072-52.23-73.59-52.23-73.59l-63.54 40.568z"
        stroke="#FE53BB" stroke-width="16" mask="url(#prefix__d)" />
      <mask id="prefix__e" fill="#fff">
        <path
          d="M1061.7 451.321c8-1.699 15.91.406 21.87 5.087l159.81-112.357s-15.41-1.736-56.69-12.006c-41.26-10.272-60.89-10.615-91.96 3.507-31.07 14.126-73.59 52.224-73.59 52.224l40.56 63.545z" />
      </mask>
      <path
        d="M1061.7 451.321c8-1.699 15.91.406 21.87 5.087l159.81-112.357s-15.41-1.736-56.69-12.006c-41.26-10.272-60.89-10.615-91.96 3.507-31.07 14.126-73.59 52.224-73.59 52.224l40.56 63.545z"
        stroke="#FE53BB" stroke-width="16" mask="url(#prefix__e)" />
    </g>
    <g filter="url(#prefix__filter1_f_0_1)">
      <mask id="prefix__f" fill="#fff">
        <path
          d="M1400.76 1601.76c.26-.15.51-.29.73-.5.13-.13.22-.3.33-.45.14-.19.31-.35.42-.57l43.63-89.6c.64-1.32.45-2.9-.49-4.03-.87-1.13-2.44-1.6-3.85-1.21l-43.41 11.99c-.1-.01-.19-.06-.29-.05-.74.01-1.39.29-1.97.68l-120.65 33.31-45.36-7.97-109.11-121.18 96.1-64.51a3.774 3.774 0 001.65-3.43 3.773 3.773 0 00-2.21-3.09l-107.63-47.75-35.92-110.76a3.711 3.711 0 00-2.84-2.51c-1.34-.27-2.71.22-3.58 1.27l-75.899 90.86c-.123.15-.184.33-.281.49-.096.16-.193.31-.268.47-.151.35-.221.71-.256 1.09-.005.1-.058.19-.067.29l-1.279 121.6a3.76 3.76 0 00.962 2.54c.586.65 1.403 1.1 2.334 1.21l31.184 3.71 1.23 38.86-99.849 47.83a3.67 3.67 0 00-2.048 2.63 3.732 3.732 0 00.886 3.22l14.808 16.45-27.029 11.98a3.754 3.754 0 00-2.145 2.65 3.742 3.742 0 00.884 3.26l.031.03 32.409 35.19a3.78 3.78 0 002.211 1.17l115.602 16.73 27.41 147.51c.13.69.44 1.32.89 1.82.52.57 1.19.97 1.98 1.14 1.46.33 2.98-.26 3.84-1.49l103.21-145.74 44.42 65.78c.1.15.21.29.32.41.45.5 1.03.89 1.73 1.08.04.02.08.01.13.02.1.03.19 0 .28.02.61.1 1.21.06 1.77-.13.1-.02.18.02.26-.02l154.31-61.99c.02-.01.04-.03.06-.04.15-.06.27-.18.42-.26v-.01zm-150.45 52.51l28.08-96.07 115.82-31.98.9 69.87-144.8 58.18zm185.23-139.47l-33.12 68.03-.76-58.67 33.88-9.36zm-302.31-67.58l87.84 97.55-151.46 39.94 63.62-137.49zm-31.4-138.95l9.73 104.56-73.95-43.38-37.996-79.86 102.216 18.68zm17.36 105.95l-9.51-102.2 97.39 43.21-87.88 58.99zm-19.39-113.91l-99.55-18.19 67.46-80.76 32.09 98.95zm-104.044 102.62l1.072-101.8 34.532 72.56c.16.32.36.63.6.89.26.29.55.53.88.72l68.53 40.21-105.614-12.58zm117.024 21.46c.07.1.08.2.16.29l13.11 14.56-93.75 41.53-2.09-66.21 82.57 9.83zm-180.949 80.54l92.379-44.24.74 23.34-80.02 35.46-13.105-14.56h.006zm14.663 64.81l-27.978-30.38 26.15-11.59c.699-.1 1.386-.34 1.955-.86.004 0 .008-.01.012-.01l178.007-78.87-63.95 138.21-114.196-16.5zm120.706 23.33l151.75-40.02-126.11 178.08-25.64-138.06zm162.41-42.18l41.03 7.2-27.43 93.84-41.56-61.54 27.96-39.5z" />
      </mask>
      <path
        d="M1400.76 1601.76c.26-.15.51-.29.73-.5.13-.13.22-.3.33-.45.14-.19.31-.35.42-.57l43.63-89.6c.64-1.32.45-2.9-.49-4.03-.87-1.13-2.44-1.6-3.85-1.21l-43.41 11.99c-.1-.01-.19-.06-.29-.05-.74.01-1.39.29-1.97.68l-120.65 33.31-45.36-7.97-109.11-121.18 96.1-64.51a3.774 3.774 0 001.65-3.43 3.773 3.773 0 00-2.21-3.09l-107.63-47.75-35.92-110.76a3.711 3.711 0 00-2.84-2.51c-1.34-.27-2.71.22-3.58 1.27l-75.899 90.86c-.123.15-.184.33-.281.49-.096.16-.193.31-.268.47-.151.35-.221.71-.256 1.09-.005.1-.058.19-.067.29l-1.279 121.6a3.76 3.76 0 00.962 2.54c.586.65 1.403 1.1 2.334 1.21l31.184 3.71 1.23 38.86-99.849 47.83a3.67 3.67 0 00-2.048 2.63 3.732 3.732 0 00.886 3.22l14.808 16.45-27.029 11.98a3.754 3.754 0 00-2.145 2.65 3.742 3.742 0 00.884 3.26l.031.03 32.409 35.19a3.78 3.78 0 002.211 1.17l115.602 16.73 27.41 147.51c.13.69.44 1.32.89 1.82.52.57 1.19.97 1.98 1.14 1.46.33 2.98-.26 3.84-1.49l103.21-145.74 44.42 65.78c.1.15.21.29.32.41.45.5 1.03.89 1.73 1.08.04.02.08.01.13.02.1.03.19 0 .28.02.61.1 1.21.06 1.77-.13.1-.02.18.02.26-.02l154.31-61.99c.02-.01.04-.03.06-.04.15-.06.27-.18.42-.26v-.01zm-150.45 52.51l28.08-96.07 115.82-31.98.9 69.87-144.8 58.18zm185.23-139.47l-33.12 68.03-.76-58.67 33.88-9.36zm-302.31-67.58l87.84 97.55-151.46 39.94 63.62-137.49zm-31.4-138.95l9.73 104.56-73.95-43.38-37.996-79.86 102.216 18.68zm17.36 105.95l-9.51-102.2 97.39 43.21-87.88 58.99zm-19.39-113.91l-99.55-18.19 67.46-80.76 32.09 98.95zm-104.044 102.62l1.072-101.8 34.532 72.56c.16.32.36.63.6.89.26.29.55.53.88.72l68.53 40.21-105.614-12.58zm117.024 21.46c.07.1.08.2.16.29l13.11 14.56-93.75 41.53-2.09-66.21 82.57 9.83zm-180.949 80.54l92.379-44.24.74 23.34-80.02 35.46-13.105-14.56h.006zm14.663 64.81l-27.978-30.38 26.15-11.59c.699-.1 1.386-.34 1.955-.86.004 0 .008-.01.012-.01l178.007-78.87-63.95 138.21-114.196-16.5zm120.706 23.33l151.75-40.02-126.11 178.08-25.64-138.06zm162.41-42.18l41.03 7.2-27.43 93.84-41.56-61.54 27.96-39.5z"
        stroke="#FE53BB" stroke-width="16" mask="url(#prefix__f)" />
    </g>
    <g filter="url(#prefix__filter2_f_0_1)">
      <mask id="prefix__g" fill="#fff">
        <path
          d="M926.194 2047.06c-.767.55-1.745.82-2.765.66l-93.543-14.19-80.097 8.61a3.706 3.706 0 01-3.228-1.28c-.804-.92-1.088-2.19-.779-3.39l45.668-172.6a3.738 3.738 0 014.562-2.66 3.731 3.731 0 012.652 4.57l-44.27 167.36 75.177-8.09c.315-.04.635-.03.96.01l94.023 14.27a3.741 3.741 0 013.13 4.26 3.678 3.678 0 01-1.491 2.46l.001.01z" />
      </mask>
      <path
        d="M926.194 2047.06c-.767.55-1.745.82-2.765.66l-93.543-14.19-80.097 8.61a3.706 3.706 0 01-3.228-1.28c-.804-.92-1.088-2.19-.779-3.39l45.668-172.6a3.738 3.738 0 014.562-2.66 3.731 3.731 0 012.652 4.57l-44.27 167.36 75.177-8.09c.315-.04.635-.03.96.01l94.023 14.27a3.741 3.741 0 013.13 4.26 3.678 3.678 0 01-1.491 2.46l.001.01z"
        stroke="#FE53BB" stroke-width="16" mask="url(#prefix__g)" />
      <mask id="prefix__h" fill="#fff">
        <path
          d="M770.825 1957.77c-.894.64-2.086.9-3.242.57l-93.314-27.13a3.735 3.735 0 012.093-7.17l93.315 27.13a3.735 3.735 0 012.537 4.63c-.242.82-.745 1.5-1.389 1.97z" />
      </mask>
      <path
        d="M770.825 1957.77c-.894.64-2.086.9-3.242.57l-93.314-27.13a3.735 3.735 0 012.093-7.17l93.315 27.13a3.735 3.735 0 012.537 4.63c-.242.82-.745 1.5-1.389 1.97h0z"
        stroke="#FE53BB" stroke-width="16" mask="url(#prefix__h)" />
      <mask id="prefix__i" fill="#fff">
        <path
          d="M751.584 2041.46l-.08.06a3.732 3.732 0 01-5.192-.96l-75.984-110.5a3.722 3.722 0 01-.544-3.03 3.804 3.804 0 011.928-2.41l121.657-62.11c1.836-.93 4.089-.21 5.021 1.63.936 1.83.134 4.1-1.63 5.02l-117.866 60.17 73.587 107a3.733 3.733 0 01-.898 5.13h.001z" />
      </mask>
      <path
        d="M751.584 2041.46l-.08.06a3.732 3.732 0 01-5.192-.96l-75.984-110.5a3.722 3.722 0 01-.544-3.03 3.804 3.804 0 011.928-2.41l121.657-62.11c1.836-.93 4.089-.21 5.021 1.63.936 1.83.134 4.1-1.63 5.02l-117.866 60.17 73.587 107a3.733 3.733 0 01-.898 5.13h.001z"
        stroke="#FE53BB" stroke-width="16" mask="url(#prefix__i)" />
      <mask id="prefix__j" fill="#fff">
        <path
          d="M927.063 2046.57c-.78.57-1.78.83-2.8.66-2.032-.33-3.409-2.26-3.079-4.29l15.481-93.83c.054-.32.147-.63.287-.92l30.927-69-172.852-9.62a3.723 3.723 0 01-3.522-3.94 3.714 3.714 0 013.935-3.51l178.268 9.9c1.232.07 2.348.74 2.987 1.79.639 1.05.725 2.35.219 3.47l-32.945 73.51-15.405 93.35a3.746 3.746 0 01-1.495 2.43h-.006z" />
      </mask>
      <path
        d="M927.063 2046.57c-.78.57-1.78.83-2.8.66-2.032-.33-3.409-2.26-3.079-4.29l15.481-93.83c.054-.32.147-.63.287-.92l30.927-69-172.852-9.62a3.723 3.723 0 01-3.522-3.94 3.714 3.714 0 013.935-3.51l178.268 9.9c1.232.07 2.348.74 2.987 1.79.639 1.05.725 2.35.219 3.47l-32.945 73.51-15.405 93.35a3.746 3.746 0 01-1.495 2.43h-.006z"
        stroke="#FE53BB" stroke-width="16" mask="url(#prefix__j)" />
      <mask id="prefix__k" fill="#fff">
        <path
          d="M975.68 1878.78a3.728 3.728 0 01-5.155-.75l-79.026-103.05-93.8 93.48c-1.446 1.41-3.817 1.46-5.281-.01-1.455-1.45-1.45-3.82.012-5.28l96.818-96.49a3.785 3.785 0 012.881-1.07c1.07.07 2.063.6 2.716 1.45l81.613 106.42a3.726 3.726 0 01-.691 5.23c-.027.03-.056.05-.081.07h-.006z" />
      </mask>
      <path
        d="M975.68 1878.78a3.728 3.728 0 01-5.155-.75l-79.026-103.05-93.8 93.48c-1.446 1.41-3.817 1.46-5.281-.01-1.455-1.45-1.45-3.82.012-5.28l96.818-96.49a3.785 3.785 0 012.881-1.07c1.07.07 2.063.6 2.716 1.45l81.613 106.42a3.726 3.726 0 01-.691 5.23c-.027.03-.056.05-.081.07h-.006z"
        stroke="#FE53BB" stroke-width="16" mask="url(#prefix__k)" />
      <mask id="prefix__l" fill="#fff">
        <path
          d="M718.627 2137.81a3.73 3.73 0 01-3.455.48c-1.937-.69-2.953-2.83-2.254-4.76l33.98-94.95c.711-1.92 2.835-2.95 4.775-2.25a3.733 3.733 0 012.254 4.77l-33.98 94.94a3.73 3.73 0 01-1.32 1.77z" />
      </mask>
      <path
        d="M718.627 2137.81a3.73 3.73 0 01-3.455.48c-1.937-.69-2.953-2.83-2.254-4.76l33.98-94.95c.711-1.92 2.835-2.95 4.775-2.25a3.733 3.733 0 012.254 4.77l-33.98 94.94a3.73 3.73 0 01-1.32 1.77h0z"
        stroke="#FE53BB" stroke-width="16" mask="url(#prefix__l)" />
      <mask id="prefix__m" fill="#fff">
        <path
          d="M961.051 2197.63c-.304.22-.632.39-.979.51l-89.683 30.83c-.644.23-1.339.26-2.017.12l-102.061-22.38a3.705 3.705 0 01-2.199-1.42L713.43 2137a3.708 3.708 0 01-.382-3.8 3.71 3.71 0 013.159-2.15l267.362-16.21a3.73 3.73 0 013.247 1.54l22.184 30.54c1.1 1.5.91 3.59-.43 4.88l-47.121 45.5c-.126.11-.256.23-.395.33h-.003zm-92.104 23.94l87.903-30.22 44.19-42.67-19.077-26.26-258.428 15.67 45.738 61.63 99.674 21.85z" />
      </mask>
      <path
        d="M961.051 2197.63c-.304.22-.632.39-.979.51l-89.683 30.83c-.644.23-1.339.26-2.017.12l-102.061-22.38a3.705 3.705 0 01-2.199-1.42L713.43 2137a3.708 3.708 0 01-.382-3.8 3.71 3.71 0 013.159-2.15l267.362-16.21a3.73 3.73 0 013.247 1.54l22.184 30.54c1.1 1.5.91 3.59-.43 4.88l-47.121 45.5c-.126.11-.256.23-.395.33h-.003zm-92.104 23.94l87.903-30.22 44.19-42.67-19.077-26.26-258.428 15.67 45.738 61.63 99.674 21.85z"
        stroke="#FE53BB" stroke-width="16" mask="url(#prefix__m)" />
      <mask id="prefix__n" fill="#fff">
        <path
          d="M958.476 2196.29c-.86.62-1.966.87-3.078.6l-231.031-56.3a3.74 3.74 0 01-2.745-4.52c.492-2 2.509-3.23 4.512-2.73l231.03 56.3a3.74 3.74 0 012.745 4.52 3.757 3.757 0 01-1.433 2.13z" />
      </mask>
      <path
        d="M958.476 2196.29c-.86.62-1.966.87-3.078.6l-231.031-56.3a3.74 3.74 0 01-2.745-4.52c.492-2 2.509-3.23 4.512-2.73l231.03 56.3a3.74 3.74 0 012.745 4.52 3.757 3.757 0 01-1.433 2.13v0z"
        stroke="#FE53BB" stroke-width="16" mask="url(#prefix__n)" />
      <mask id="prefix__o" fill="#fff">
        <path
          d="M920.892 2184.44a3.736 3.736 0 01-4.778-5.72l65.087-62.84c1.456-1.43 3.834-1.4 5.279.1a3.74 3.74 0 01-.098 5.28l-65.086 62.84c-.125.13-.265.23-.404.34z" />
      </mask>
      <path
        d="M920.892 2184.44a3.736 3.736 0 01-4.778-5.72l65.087-62.84c1.456-1.43 3.834-1.4 5.279.1a3.74 3.74 0 01-.098 5.28l-65.086 62.84c-.125.13-.265.23-.404.34h0z"
        stroke="#FE53BB" stroke-width="16" mask="url(#prefix__o)" />
      <mask id="prefix__p" fill="#fff">
        <path
          d="M959.974 2120.66l-.114.08a3.75 3.75 0 01-5.185-1.02l-50.835-75.69c-1.138-1.71-1.003-3.95 1.029-5.17a3.736 3.736 0 015.182 1.01l50.835 75.69a3.744 3.744 0 01-.912 5.1z" />
      </mask>
      <path
        d="M959.974 2120.66l-.114.08a3.75 3.75 0 01-5.185-1.02l-50.835-75.69c-1.138-1.71-1.003-3.95 1.029-5.17a3.736 3.736 0 015.182 1.01l50.835 75.69a3.744 3.744 0 01-.912 5.1h0z"
        stroke="#FE53BB" stroke-width="16" mask="url(#prefix__p)" />
      <mask id="prefix__q" fill="#fff">
        <path
          d="M937.271 2123.57a3.712 3.712 0 01-4.597-.17l-106.938-89.98a3.72 3.72 0 01-.451-5.25c1.346-1.58 3.686-1.78 5.254-.45l106.939 89.98a3.714 3.714 0 01.45 5.25c-.19.24-.417.45-.657.62z" />
      </mask>
      <path
        d="M937.271 2123.57a3.712 3.712 0 01-4.597-.17l-106.938-89.98a3.72 3.72 0 01-.451-5.25c1.346-1.58 3.686-1.78 5.254-.45l106.939 89.98a3.714 3.714 0 01.45 5.25c-.19.24-.417.45-.657.62h0z"
        stroke="#FE53BB" stroke-width="16" mask="url(#prefix__q)" />
      <mask id="prefix__r" fill="#fff">
        <path
          d="M888.133 2124.58a3.724 3.724 0 01-5.749-4.13l10.396-33.29a3.727 3.727 0 014.684-2.45 3.72 3.72 0 012.444 4.68l-10.396 33.29a3.758 3.758 0 01-1.379 1.9z" />
      </mask>
      <path
        d="M888.133 2124.58a3.724 3.724 0 01-5.749-4.13l10.396-33.29a3.727 3.727 0 014.684-2.45 3.72 3.72 0 012.444 4.68l-10.396 33.29a3.758 3.758 0 01-1.379 1.9z"
        stroke="#FE53BB" stroke-width="16" mask="url(#prefix__r)" />
      <mask id="prefix__s" fill="#fff">
        <path
          d="M885.502 2040.3c-.901.65-2.086.9-3.244.56a3.728 3.728 0 01-2.533-4.63l10.708-36.74a3.733 3.733 0 013.969-2.67l34.917 3.59a3.732 3.732 0 013.326 4.1 3.726 3.726 0 01-4.099 3.33l-31.818-3.27-9.843 33.76c-.237.81-.737 1.5-1.382 1.96l-.001.01z" />
      </mask>
      <path
        d="M885.502 2040.3c-.901.65-2.086.9-3.244.56a3.728 3.728 0 01-2.533-4.63l10.708-36.74a3.733 3.733 0 013.969-2.67l34.917 3.59a3.732 3.732 0 013.326 4.1 3.726 3.726 0 01-4.099 3.33l-31.818-3.27-9.843 33.76c-.237.81-.737 1.5-1.382 1.96l-.001.01z"
        stroke="#FE53BB" stroke-width="16" mask="url(#prefix__s)" />
      <mask id="prefix__t" fill="#fff">
        <path
          d="M971.252 2119.96c-.379.28-.832.5-1.32.61a3.72 3.72 0 01-4.501-2.75l-32.988-136.92c-.493-2 .744-4.01 2.753-4.5 2.004-.49 4.013.75 4.504 2.75l32.988 136.92a3.716 3.716 0 01-1.436 3.89z" />
      </mask>
      <path
        d="M971.252 2119.96c-.379.28-.832.5-1.32.61a3.72 3.72 0 01-4.501-2.75l-32.988-136.92c-.493-2 .744-4.01 2.753-4.5 2.004-.49 4.013.75 4.504 2.75l32.988 136.92a3.716 3.716 0 01-1.436 3.89h0z"
        stroke="#FE53BB" stroke-width="16" mask="url(#prefix__t)" />
      <mask id="prefix__u" fill="#fff">
        <path
          d="M897.051 1874.63c-.581.42-1.278.67-2.048.71a3.743 3.743 0 01-3.881-3.58l-3.875-100.55a3.739 3.739 0 013.587-3.88c2.058-.07 3.799 1.54 3.88 3.59l3.875 100.54a3.728 3.728 0 01-1.538 3.17z" />
      </mask>
      <path
        d="M897.051 1874.63c-.581.42-1.278.67-2.048.71a3.743 3.743 0 01-3.881-3.58l-3.875-100.55a3.739 3.739 0 013.587-3.88c2.058-.07 3.799 1.54 3.88 3.59l3.875 100.54a3.728 3.728 0 01-1.538 3.17h0z"
        stroke="#FE53BB" stroke-width="16" mask="url(#prefix__u)" />
    </g>
    <g filter="url(#prefix__filter3_f_0_1)">
      <mask id="prefix__v" fill="#fff">
        <path
          d="M847.476 536.18L625.029 900.312l-48.202-74.596L847.476 536.18zM496.224 760.303c-5.252 6.121-11.705 13.479-19.065 21.762-24.703 27.801-59.614 66.016-94.169 103.528l-.42-83.618 113.654-41.672zM219.927 548.816l90.271-28.381-4.267 42.086-86.004-13.705zm-96.938 275.661l-61.76-312.674 201.255 145.67-14.568 83.068-90.052-109.807-10.646 8.731 97.562 118.966-25.919 147.798-95.872-81.752zm98.363 147.267l37.721-215.102 1.225-1.003-.864-1.053 31.651-180.487 13.454 2.144-39.62 390.826-43.567 4.675zm53.889 30.026l49.251-485.829 42.799-13.456 2.006 397.959a23043.948 23043.948 0 01-25.812 27.913 28607.604 28607.604 0 01-58.112 62.551c-3.759 4.035-7.155 7.675-10.132 10.862zm99.048 1.19a2.932 2.932 0 00-.453-.07 6.775 6.775 0 00-1.223-.03c-.586.04-1.316.18-2.111.5l-86.527 9.24c19.145-20.523 57.621-61.831 98.168-105.775l.954-.004h-.001l-.005-1.024c3.619-3.923 7.252-7.865 10.891-11.814 30.879-33.527 61.976-67.545 85.823-94.2 11.926-13.329 22.033-24.812 29.427-33.512 2.8-3.297 5.209-6.188 7.196-8.653l99.924 154.64-74.571 72.818-167.492 17.884zm58.439 65.16c-13.422-15.64-26.88-31.3-37.064-43.08-3.116-3.61-5.925-6.86-8.335-9.63l155.698-16.619 221.757 157.349 7.968-11.23-217.15-154.08 71.216-69.541 99.372 55.854 175.868 255.517-417.223-103.73c-5.875-6.86-28.934-33.81-52.107-60.81z" />
      </mask>
      <path
        d="M847.476 536.18L625.029 900.312l-48.202-74.596L847.476 536.18zM496.224 760.303c-5.252 6.121-11.705 13.479-19.065 21.762-24.703 27.801-59.614 66.016-94.169 103.528l-.42-83.618 113.654-41.672zM219.927 548.816l90.271-28.381-4.267 42.086-86.004-13.705zm-96.938 275.661l-61.76-312.674 201.255 145.67-14.568 83.068-90.052-109.807-10.646 8.731 97.562 118.966-25.919 147.798-95.872-81.752zm98.363 147.267l37.721-215.102 1.225-1.003-.864-1.053 31.651-180.487 13.454 2.144-39.62 390.826-43.567 4.675zm53.889 30.026l49.251-485.829 42.799-13.456 2.006 397.959a23043.948 23043.948 0 01-25.812 27.913 28607.604 28607.604 0 01-58.112 62.551c-3.759 4.035-7.155 7.675-10.132 10.862zm99.048 1.19a2.932 2.932 0 00-.453-.07 6.775 6.775 0 00-1.223-.03c-.586.04-1.316.18-2.111.5l-86.527 9.24c19.145-20.523 57.621-61.831 98.168-105.775l.954-.004h-.001l-.005-1.024c3.619-3.923 7.252-7.865 10.891-11.814 30.879-33.527 61.976-67.545 85.823-94.2 11.926-13.329 22.033-24.812 29.427-33.512 2.8-3.297 5.209-6.188 7.196-8.653l99.924 154.64-74.571 72.818-167.492 17.884zm58.439 65.16c-13.422-15.64-26.88-31.3-37.064-43.08-3.116-3.61-5.925-6.86-8.335-9.63l155.698-16.619 221.757 157.349 7.968-11.23-217.15-154.08 71.216-69.541 99.372 55.854 175.868 255.517-417.223-103.73c-5.875-6.86-28.934-33.81-52.107-60.81z"
        stroke="#FE53BB" stroke-width="16" mask="url(#prefix__v)" />
    </g>
    <g filter="url(#prefix__filter4_f_0_1)">
      <mask id="prefix__w" fill="#fff">
        <path
          d="M440.121 1746.73c.149-.22.346-.39.458-.64l25.665-57.65c.082-.18.064-.38.123-.57 1.141-2.01.939-4.55-.748-6.28l-88.464-89.97-35.522-148.87a5.274 5.274 0 00-3.711-3.87c-1.854-.53-3.835.01-5.192 1.36l-26.561 26.8-13.297-23.42a5.378 5.378 0 00-4.3-2.68 5.282 5.282 0 00-4.58 2.17l-44.488 60.98a5.321 5.321 0 00-.804 4.6l38.255 131.48-17.035 9.27a5.296 5.296 0 00-2.754 4.87l2.478 59.33-61.659-18.4a5.316 5.316 0 00-3.641.23L51.466 1757.9a5.29 5.29 0 00-3.14 4.32l-3.052 30.1-71.764-3.18a5.269 5.269 0 00-4.738 2.51 5.3 5.3 0 00-.109 5.37l65.359 116c.012.01.022.03.024.03.28.49.629.92 1.042 1.3.414.38.889.68 1.389.9h.004l151.05 67.26c1.589.71 3.428.59 4.91-.32a5.265 5.265 0 002.524-4.22l1.593-28.99 47.353-.12-3.738 53.26a5.295 5.295 0 003.127 5.21c.233.1.479.19.741.27a5.305 5.305 0 006.13-2.71l129.844-255.54 55.609-.14h.131c.212 0 .394-.09.598-.13.473-.05.933-.1 1.366-.27.297-.12.54-.33.807-.51.306-.19.626-.34.885-.59.302-.29.492-.63.707-.98h.003zm-58.206-7.96l-3.861-131.16 77.498 78.81-23.247 52.22-50.39.13zm-48.353-284.31l25.021 104.84-46.967-82.7 21.946-22.14zm-83.964 53.77l38.126-52.26 12.616 22.21c.06.1.11.21.177.31l64.596 113.72-78.63 42.78-36.885-126.76zm117.732 94.82l3.954 134.48-100.92-21.04-2.477-59.33 99.443-54.11zM44.218 1802.86l-9.154 90.42-52.493-93.15 61.647 2.73zm152.928 135.55l6.342-115.1a5.273 5.273 0 00-4.987-5.57 5.277 5.277 0 00-5.573 4.99l-8.096 147-140.537-62.58 14.255-140.78 138.27-60.43 62.848 18.76-15 213.59-47.522.12zm55.414 38.43l17.525-249.6 98.819 20.61-116.344 228.99z" />
      </mask>
      <path
        d="M440.121 1746.73c.149-.22.346-.39.458-.64l25.665-57.65c.082-.18.064-.38.123-.57 1.141-2.01.939-4.55-.748-6.28l-88.464-89.97-35.522-148.87a5.274 5.274 0 00-3.711-3.87c-1.854-.53-3.835.01-5.192 1.36l-26.561 26.8-13.297-23.42a5.378 5.378 0 00-4.3-2.68 5.282 5.282 0 00-4.58 2.17l-44.488 60.98a5.321 5.321 0 00-.804 4.6l38.255 131.48-17.035 9.27a5.296 5.296 0 00-2.754 4.87l2.478 59.33-61.659-18.4a5.316 5.316 0 00-3.641.23L51.466 1757.9a5.29 5.29 0 00-3.14 4.32l-3.052 30.1-71.764-3.18a5.269 5.269 0 00-4.738 2.51 5.3 5.3 0 00-.109 5.37l65.359 116c.012.01.022.03.024.03.28.49.629.92 1.042 1.3.414.38.889.68 1.389.9h.004l151.05 67.26c1.589.71 3.428.59 4.91-.32a5.265 5.265 0 002.524-4.22l1.593-28.99 47.353-.12-3.738 53.26a5.295 5.295 0 003.127 5.21c.233.1.479.19.741.27a5.305 5.305 0 006.13-2.71l129.844-255.54 55.609-.14h.131c.212 0 .394-.09.598-.13.473-.05.933-.1 1.366-.27.297-.12.54-.33.807-.51.306-.19.626-.34.885-.59.302-.29.492-.63.707-.98h.003zm-58.206-7.96l-3.861-131.16 77.498 78.81-23.247 52.22-50.39.13zm-48.353-284.31l25.021 104.84-46.967-82.7 21.946-22.14zm-83.964 53.77l38.126-52.26 12.616 22.21c.06.1.11.21.177.31l64.596 113.72-78.63 42.78-36.885-126.76zm117.732 94.82l3.954 134.48-100.92-21.04-2.477-59.33 99.443-54.11zM44.218 1802.86l-9.154 90.42-52.493-93.15 61.647 2.73zm152.928 135.55l6.342-115.1a5.273 5.273 0 00-4.987-5.57 5.277 5.277 0 00-5.573 4.99l-8.096 147-140.537-62.58 14.255-140.78 138.27-60.43 62.848 18.76-15 213.59-47.522.12zm55.414 38.43l17.525-249.6 98.819 20.61-116.344 228.99z"
        stroke="#FE53BB" stroke-width="16" mask="url(#prefix__w)" />
    </g>
    <path
      d="M226.75 329.998L411.679-4.936l34.665 15.434-162.935 344.726-56.659-25.226zM538.332 468.723L663.495 107.18 628.83 91.746 481.674 443.497l56.658 25.226z"
      stroke="#FE53BB" stroke-width="8" />
    <path
      d="M492.771 133.337l-1.626 3.654 1.626-3.654zM321.886 57.254l-3.991.265.16 2.408 2.204.981 1.627-3.654zm171.124 76.19l1.627-3.655-1.627 3.655zm170.885 76.083l-1.627 3.654 2.205.981 1.896-1.492-2.474-3.143zm33.943-26.71l2.474 3.143 5.211-4.101-6.058-2.697-1.627 3.655zM508.55 98.54l1.627-3.654-1.627 3.654zm-.238-.106l-1.627 3.654 1.627-3.654zM319.023 14.157l1.627-3.654-6.057-2.697.439 6.616 3.991-.265zm175.375 115.526L323.513 53.6l-3.254 7.308 170.886 76.083 3.253-7.308zm-3.253 7.308l.238.107 3.254-7.309-.239-.106-3.253 7.308zm.238.107l170.885 76.083 3.254-7.309-170.885-76.083-3.254 7.309zm174.986 75.572l33.943-26.71-4.947-6.287-33.943 26.71 4.947 6.287zm33.096-33.508L510.177 94.886l-3.254 7.308 189.288 84.277 3.254-7.309zM510.177 94.886l-.239-.106-3.253 7.308.238.106 3.254-7.308zM317.396 17.81l189.289 84.277 3.253-7.308L320.65 10.502l-3.254 7.308zm8.482 39.178l-2.863-43.097-7.983.53 2.863 43.097 7.983-.53z"
      fill="#FE53BB" />
    <path d="M386.577-16.112l10.289-23.11 292.457 130.21-10.289 23.11-292.457-130.21z" stroke="#FE53BB"
      stroke-width="8" />
    <path d="M370.569-50.93l6.032-13.547L716.87 87.02l-6.031 13.547L370.569-50.93z" stroke="#FE53BB" stroke-width="8" />
    <path d="M334.366-83.281l69.788 6.246L715.736 61.69l52.135 48.038L334.366-83.281z" stroke="#FE53BB"
      stroke-width="8" />
  </g>
  <defs>
    <filter id="prefix__filter0_f_0_1" x="889.049" y="299.049" width="356.327" height="356.327"
      filterUnits="userSpaceOnUse" color-interpolation-filters="sRGB">
      <feFlood flood-opacity="0" result="BackgroundImageFix" />
      <feBlend in="SourceGraphic" in2="BackgroundImageFix" result="shape" />
      <feGaussianBlur stdDeviation="1" result="effect1_foregroundBlur_0_1" />
    </filter>
    <filter id="prefix__filter1_f_0_1" x="906.515" y="1188.06" width="541.733" height="558.16"
      filterUnits="userSpaceOnUse" color-interpolation-filters="sRGB">
      <feFlood flood-opacity="0" result="BackgroundImageFix" />
      <feBlend in="SourceGraphic" in2="BackgroundImageFix" result="shape" />
      <feGaussianBlur stdDeviation="1" result="effect1_foregroundBlur_0_1" />
    </filter>
    <filter id="prefix__filter2_f_0_1" x="667.67" y="1763.6" width="344.046" height="467.575"
      filterUnits="userSpaceOnUse" color-interpolation-filters="sRGB">
      <feFlood flood-opacity="0" result="BackgroundImageFix" />
      <feBlend in="SourceGraphic" in2="BackgroundImageFix" result="shape" />
      <feGaussianBlur stdDeviation="1" result="effect1_foregroundBlur_0_1" />
    </filter>
    <filter id="prefix__filter3_f_0_1" x="59.23" y="500.485" width="844.828" height="734.175"
      filterUnits="userSpaceOnUse" color-interpolation-filters="sRGB">
      <feFlood flood-opacity="0" result="BackgroundImageFix" />
      <feBlend in="SourceGraphic" in2="BackgroundImageFix" result="shape" />
      <feGaussianBlur stdDeviation="1" result="effect1_foregroundBlur_0_1" />
    </filter>
    <filter id="prefix__filter4_f_0_1" x="-34.014" y="1436.68" width="503.098" height="573.108"
      filterUnits="userSpaceOnUse" color-interpolation-filters="sRGB">
      <feFlood flood-opacity="0" result="BackgroundImageFix" />
      <feBlend in="SourceGraphic" in2="BackgroundImageFix" result="shape" />
      <feGaussianBlur stdDeviation="1" result="effect1_foregroundBlur_0_1" />
    </filter>
    <clipPath id="prefix__clip0_0_1">
      <path fill="#fff" d="M0 0h1440v2281H0z" />
    </clipPath>
  </defs>
</svg>