<svg width="12" height="12" viewBox="0 0 12 12" fill="none" xmlns="http://www.w3.org/2000/svg">
<path d="M3.90454 2.16477C3.90454 4.19348 6.00014 5.59489 6.00014 5.59489C6.00014 5.59489 8.09562 4.19348 8.09562 2.16477C8.09562 0.969196 7.15749 1.8765e-10 6.00014 1.8765e-10C4.84282 -1.55722e-05 3.90454 0.969196 3.90454 2.16477Z" fill="#F2A0A1"/>
<path d="M1.44856 7.15264C3.31639 7.77964 5.25439 6.15399 5.25439 6.15399C5.25439 6.15399 4.6116 3.66219 2.74372 3.0352C1.64297 2.66583 0.460763 3.28819 0.10313 4.42513C-0.254518 5.56208 0.347894 6.78327 1.44856 7.15264Z" fill="#F2A0A1"/>
<path d="M5.28278 11.108C6.43718 9.4668 5.53934 7.0605 5.53934 7.0605C5.53934 7.0605 3.04644 6.92206 1.89211 8.56343C1.21183 9.53049 1.41927 10.8842 2.35569 11.587C3.29204 12.2896 4.60246 12.0752 5.28278 11.108Z" fill="#F2A0A1"/>
<path d="M10.1081 8.56343C8.95362 6.92192 6.46085 7.06051 6.46085 7.06051C6.46085 7.06051 5.56296 9.46665 6.7174 11.1079C7.39759 12.0752 8.70809 12.2896 9.64444 11.5868C10.5807 10.8841 10.7883 9.5305 10.1081 8.56343Z" fill="#F2A0A1"/>
<path d="M9.25635 3.03527C7.38847 3.66214 6.74561 6.15393 6.74561 6.15393C6.74561 6.15393 8.68353 7.77959 10.5514 7.15273C11.6522 6.78322 12.2545 5.56217 11.8968 4.42508C11.5392 3.2881 10.357 2.66575 9.25635 3.03527Z" fill="#F2A0A1"/>
<path d="M6.44011 6.40477C6.44011 6.65592 6.24303 6.8595 5.9999 6.8595C5.7569 6.8595 5.55981 6.65592 5.55981 6.40477C5.55981 6.15377 5.7569 5.9502 5.9999 5.9502C6.24303 5.9502 6.44011 6.15377 6.44011 6.40477Z" fill="#F2A0A1"/>
</svg>
