<svg width="162" height="162" viewBox="0 0 162 162" fill="none" xmlns="http://www.w3.org/2000/svg">
<rect width="27" height="27" transform="matrix(-1 0 0 1 162 27)" fill="#F0E8DE"/>
<rect width="27" height="27" transform="matrix(-1 0 0 1 162 81)" fill="#F0E8DE"/>
<rect width="27" height="27" transform="matrix(-1 0 0 1 135 54)" fill="#F0E8DE"/>
<rect width="27" height="27" transform="matrix(-1 0 0 1 135 0)" fill="#F0E8DE"/>
<rect width="27" height="27" transform="matrix(-1 0 0 1 81 0)" fill="#F0E8DE"/>
<rect width="27" height="27" transform="matrix(-1 0 0 1 108 27)" fill="#F0E8DE"/>
<rect width="27" height="27" transform="matrix(-1 0 0 1 135 108)" fill="#F0E8DE"/>
<rect width="27" height="27" transform="matrix(-1 0 0 1 108 81)" fill="#F0E8DE"/>
<rect width="27" height="27" transform="matrix(-1 0 0 1 81 54)" fill="#F0E8DE"/>
<rect width="27" height="27" transform="matrix(-1 0 0 1 54 27)" fill="#F0E8DE"/>
<rect width="27" height="27" transform="matrix(-1 0 0 1 27 0)" fill="#F0E8DE"/>
<rect width="27" height="27" transform="matrix(-1 0 0 1 27 54)" fill="#F0E8DE"/>
<rect width="27" height="27" transform="matrix(-1 0 0 1 27 108)" fill="#F0E8DE"/>
<rect width="27" height="27" transform="matrix(-1 0 0 1 54 135)" fill="#F0E8DE"/>
<rect width="27" height="27" transform="matrix(-1 0 0 1 108 135)" fill="#F0E8DE"/>
<rect width="27" height="27" transform="matrix(-1 0 0 1 162 135)" fill="#F0E8DE"/>
<rect width="27" height="27" transform="matrix(-1 0 0 1 54 81)" fill="#F0E8DE"/>
<rect width="27" height="27" transform="matrix(-1 0 0 1 81 108)" fill="#F0E8DE"/>
<rect width="27" height="27" transform="matrix(-1 0 0 1 108 108)" fill="#EBDED5"/>
<rect width="27" height="27" transform="matrix(-1 0 0 1 162 0)" fill="#EBDED5"/>
<rect width="27" height="27" transform="matrix(-1 0 0 1 162 0)" fill="#EBDED5"/>
<rect width="27" height="27" transform="matrix(-1 0 0 1 162 54)" fill="#EBDED5"/>
<rect width="27" height="27" transform="matrix(-1 0 0 1 162 108)" fill="#EBDED5"/>
<rect width="27" height="27" transform="matrix(-1 0 0 1 135 27)" fill="#EBDED5"/>
<rect width="27" height="27" transform="matrix(-1 0 0 1 135 81)" fill="#EBDED5"/>
<rect width="27" height="27" transform="matrix(-1 0 0 1 108 54)" fill="#EBDED5"/>
<rect width="27" height="27" transform="matrix(-1 0 0 1 108 0)" fill="#EBDED5"/>
<rect width="27" height="27" transform="matrix(-1 0 0 1 54 0)" fill="#EBDED5"/>
<rect width="27" height="27" transform="matrix(-1 0 0 1 27 27)" fill="#EBDED5"/>
<rect width="27" height="27" transform="matrix(-1 0 0 1 27 81)" fill="#EBDED5"/>
<rect width="27" height="27" transform="matrix(-1 0 0 1 81 135)" fill="#EBDED5"/>
<rect width="27" height="27" transform="matrix(-1 0 0 1 27 135)" fill="#EBDED5"/>
<rect width="27" height="27" transform="matrix(-1 0 0 1 135 135)" fill="#EBDED5"/>
<rect width="27" height="27" transform="matrix(-1 0 0 1 81 27)" fill="#EBDED5"/>
<rect width="27" height="27" transform="matrix(-1 0 0 1 81 81)" fill="#EBDED5"/>
<rect width="27" height="27" transform="matrix(-1 0 0 1 54 54)" fill="#EBDED5"/>
<rect width="27" height="27" transform="matrix(-1 0 0 1 54 108)" fill="#EBDED5"/>
</svg>
