<svg width="460" height="117" viewBox="0 0 460 117" fill="none" xmlns="http://www.w3.org/2000/svg">
<rect width="460" height="117" fill="#EAF4FC"/>
<path d="M41.04 13.96C41.04 14.8933 40.5867 15.36 39.68 15.36C38.8 15.36 38.24 15.0133 38 14.32L37.64 13.12C37.3733 12.2133 36.88 11.3733 36.16 10.6C35.44 9.82666 35.08 9.38666 35.08 9.28V9.2C35.08 8.82667 35.4 8.64 36.04 8.64C36.1467 8.64 36.28 8.69333 36.44 8.8C39.2667 10.5067 40.7867 12.0267 41 13.36C41.0267 13.5733 41.04 13.7733 41.04 13.96ZM46.12 12.72C46.12 13.7867 45.5733 14.32 44.48 14.32C43.7333 14.32 43.24 13.9733 43 13.28L42.64 12.08C42.4 11.2533 41.92 10.44 41.2 9.64C40.48 8.81333 40.12 8.34667 40.12 8.24C40.12 7.86667 40.36 7.68 40.84 7.68C40.9467 7.68 41.08 7.70667 41.24 7.76C44.4933 9.54667 46.12 11.2 46.12 12.72ZM14.4 22.88C12.1067 21.4933 10.96 20.3067 10.96 19.32C10.96 18.3067 11.16 17.8 11.56 17.8C11.7467 17.8 11.88 17.84 11.96 17.92C13.56 19.0133 14.3867 19.56 14.44 19.56C15.16 19.7467 15.8667 19.92 16.56 20.08L23.56 19.6C28.28 19.0933 32.2533 18.4667 35.48 17.72C36.2533 17 36.76 16.64 37 16.64C37.24 16.64 37.6133 16.7733 38.12 17.04L38.52 17.28C39.4533 17.7867 40.1733 18.3067 40.68 18.84C40.8133 19.08 40.88 19.2533 40.88 19.36C40.88 19.44 40.8533 19.48 40.8 19.48H40.64C40.6933 19.5067 40.72 19.5867 40.72 19.72C40.72 19.8533 40.4533 20.16 39.92 20.64L39.48 21C39.2933 21.16 39.2 21.2667 39.2 21.32C37.44 32.8933 30.1067 40.8267 17.2 45.12C16.6667 45.3067 16.2133 45.4 15.84 45.4C15.4667 45.4 15.1467 45.12 14.88 44.56C14.8533 44.5067 14.84 44.4133 14.84 44.28C14.84 43.8533 15.28 43.5067 16.16 43.24C28.1333 39.5333 34.7067 31.7867 35.88 20L35 20.08C29.4267 20.56 24.2133 21.3867 19.36 22.56L15.84 23.4C15.3867 23.4 14.9067 23.2267 14.4 22.88ZM58.88 31.92C58.6667 32.2133 58.4533 32.3733 58.24 32.4C58.0533 32.4 57.9467 32.4 57.92 32.4L56.92 32.04C56.5733 31.7733 56.3467 31.4267 56.24 31C55.9467 29.5333 55.56 28.36 55.08 27.48C54.6267 26.5733 53.8133 25.6933 52.64 24.84C52.3733 24.68 52.24 24.4533 52.24 24.16C52.24 23.8667 52.4 23.6933 52.72 23.64C52.96 23.64 53.2533 23.7333 53.6 23.92C55.5733 25.0667 57.24 26.4667 58.6 28.12C59.24 28.8933 59.56 29.56 59.56 30.12C59.56 30.6533 59.3333 31.2533 58.88 31.92ZM66.92 29.72C66.6 30.2 66.24 30.4533 65.84 30.48C65.4667 30.5067 65.1067 30.4 64.76 30.16C64.4133 29.8933 64.1867 29.5333 64.08 29.08C63.76 27.64 63.36 26.4667 62.88 25.56C62.4267 24.6533 61.6267 23.7733 60.48 22.92C60.2133 22.8133 60.0533 22.6667 60 22.48C59.9733 22.0267 60.1867 21.8 60.64 21.8C60.88 21.8 61.1467 21.88 61.44 22.04C63.4133 23.1867 65.08 24.6 66.44 26.28C67.1067 27.0533 67.44 27.7067 67.44 28.24C67.44 28.7467 67.2667 29.24 66.92 29.72ZM59.04 45.4C58.2933 45.4 57.92 45.16 57.92 44.68C57.92 44.4133 58.4 44.1467 59.36 43.88C63.4133 42.7333 66.7333 40.64 69.32 37.6C72.7867 33.2533 74.68 29.24 75 25.56V24.76C75 24.0133 74.5733 23.5067 73.72 23.24C73.3733 23.1067 73.2 22.92 73.2 22.68C73.2 22.36 73.3867 22.2 73.76 22.2C74.16 22.2 74.7333 22.3467 75.48 22.64C77.7733 23.52 78.92 24.32 78.92 25.04C78.92 25.2533 78.8133 25.5067 78.6 25.8C78.4133 26.0667 78.2667 26.3467 78.16 26.64C74.2133 37.68 68.1867 43.8933 60.08 45.28C59.4933 45.36 59.1467 45.4 59.04 45.4ZM116 21.12C115.733 21.04 115.307 21 114.72 21C114.133 21 113.093 21.1333 111.6 21.4C110.107 21.64 108.013 21.96 105.32 22.36C102.52 26.6267 99.0667 29.9067 94.96 32.2C94.6933 32.3333 94.44 32.4 94.2 32.4C93.9867 32.4 93.8133 32.3333 93.68 32.2C93.5467 32.04 93.48 31.8933 93.48 31.76C93.48 31.4933 93.76 31.2 94.32 30.88C98.48 28.4 101.627 23.96 103.76 17.56C103.787 17.48 103.8 17.4267 103.8 17.4C103.8 16.5733 103.36 16.0533 102.48 15.84C102.053 15.7333 101.84 15.56 101.84 15.32C101.84 14.9733 102.12 14.8 102.68 14.8C103.933 14.8 105.293 15.1067 106.76 15.72C107.693 16.12 108.16 16.5867 108.16 17.12C108.16 17.3867 108.027 17.5867 107.76 17.72C107.493 17.8267 107.347 17.9333 107.32 18.04C107.027 18.7333 106.707 19.3867 106.36 20C106.707 20.0267 107.333 20.04 108.24 20.04C109.147 20.04 110.48 19.8267 112.24 19.4C114.027 18.9467 115.107 18.6533 115.48 18.52C116.36 17.7733 116.84 17.3867 116.92 17.36C117 17.3067 117.08 17.28 117.16 17.28C117.667 17.28 118.453 17.64 119.52 18.36C120.613 19.08 121.16 19.64 121.16 20.04C121.16 20.44 120.933 20.84 120.48 21.24C120.027 21.6133 119.787 21.8533 119.76 21.96C116.667 32.9467 109.08 40.7067 97 45.24C96.7867 45.32 96.6 45.36 96.44 45.36C95.9333 45.36 95.68 44.9467 95.68 44.12V44.08C95.68 43.92 96.1333 43.64 97.04 43.24C108.4 37.9333 114.72 30.56 116 21.12ZM163.36 42.76C163.36 43 163.36 43.16 163.36 43.24V43.28C163.36 43.84 163.227 44.4 162.96 44.96C162.72 45.4933 162.373 45.76 161.92 45.76C161.493 45.76 161.107 45.6267 160.76 45.36C160.44 45.12 160.16 44.7333 159.92 44.2C159.707 43.64 159.373 43.0533 158.92 42.44C158.493 41.8 157.507 40.5733 155.96 38.76C153.96 36.3333 151.453 34.36 148.44 32.84C142.787 39.4 137.347 43.56 132.12 45.32C131.96 45.3733 131.813 45.4 131.68 45.4C131.547 45.4 131.387 45.3867 131.2 45.36C131.04 45.36 130.907 45.2533 130.8 45.04C130.693 44.8533 130.64 44.7067 130.64 44.6C130.64 44.1467 131.04 43.72 131.84 43.32C142.08 38.2267 148.96 30.28 152.48 19.48C152.427 19.48 150.707 19.7867 147.32 20.4C143.96 20.9867 141.987 21.3067 141.4 21.36C140.813 21.4133 140.16 21.52 139.44 21.68L138.16 21.96H138.12C137.56 21.96 137.093 21.88 136.72 21.72C136.347 21.5333 135.88 21.1733 135.32 20.64C134.173 19.5733 133.6 18.7733 133.6 18.24C133.6 17.7067 133.8 17.44 134.2 17.44H134.24C134.4 17.44 134.52 17.48 134.6 17.56C134.68 17.6133 134.827 17.76 135.04 18C135.893 18.9333 137.48 19.4 139.8 19.4C139.88 19.4 139.947 19.4 140 19.4C143.76 19.4 147.547 18.6933 151.36 17.28L152.16 16.88C152.88 16.24 153.28 15.92 153.36 15.92C153.44 15.8933 153.587 15.88 153.8 15.88C154.013 15.88 154.347 16 154.8 16.24L155.2 16.48C156.933 17.4133 157.8 18.0933 157.8 18.52V18.72C157.693 19.0133 157.507 19.28 157.24 19.52L156.52 20.12C156.307 20.3067 156.2 20.4533 156.2 20.56C154.493 24.4533 152.213 28.1867 149.36 31.76C151.733 32.5067 154.4 34.08 157.36 36.48C161.36 39.7333 163.36 41.8267 163.36 42.76ZM194.92 20.56C194.04 19.6533 193.6 18.5733 193.6 17.32C193.6 16.04 194.04 14.9467 194.92 14.04C195.827 13.1333 196.92 12.68 198.2 12.68C199.48 12.68 200.56 13.1333 201.44 14.04C202.347 14.9467 202.8 16.04 202.8 17.32C202.8 18.5733 202.347 19.6533 201.44 20.56C200.56 21.44 199.48 21.88 198.2 21.88C196.92 21.88 195.827 21.44 194.92 20.56ZM196.08 15.16C195.493 15.7467 195.2 16.4533 195.2 17.28C195.2 18.1067 195.493 18.8133 196.08 19.4C196.667 19.96 197.373 20.24 198.2 20.24C199.027 20.24 199.733 19.96 200.32 19.4C200.907 18.8133 201.2 18.1067 201.2 17.28C201.2 16.4533 200.907 15.7467 200.32 15.16C199.733 14.5733 199.027 14.28 198.2 14.28C197.373 14.28 196.667 14.5733 196.08 15.16ZM202.44 34.56C202.893 34.88 203.32 35.2533 203.72 35.68C204.147 36.1067 204.36 36.7733 204.36 37.68C204.36 38.5867 204.24 39.24 204 39.64C203.787 40.0133 203.4 40.2 202.84 40.2C202.307 40.2 201.72 39.8133 201.08 39.04L200.24 38C198.933 36.4 198.16 35.48 197.92 35.24L195.04 32.28L185.48 24.36C185.213 24.1467 185.013 23.96 184.88 23.8C184.773 23.6133 184.56 23.52 184.24 23.52C183.947 23.52 183.747 23.5867 183.64 23.72L175.96 33.16C175.693 33.48 175.4 33.9333 175.08 34.52C174.787 35.1067 174.52 35.4 174.28 35.4C173.56 35.4 172.667 34.96 171.6 34.08C170.533 33.2 169.827 32.3467 169.48 31.52C169.373 31.28 169.32 31.0933 169.32 30.96C169.32 30.8267 169.387 30.72 169.52 30.64C169.653 30.5333 169.787 30.48 169.92 30.48C170.08 30.48 170.24 30.6267 170.4 30.92C170.72 31.5067 171.213 31.8 171.88 31.8C172.12 31.8 172.413 31.7733 172.76 31.72L175.88 28.8L180.36 24.28C181.987 22.6267 182.893 21.6667 183.08 21.4C183.293 21.1067 183.68 20.96 184.24 20.96C184.8 20.96 185.213 21.12 185.48 21.44L195.6 29.44L198.04 31.32L202.44 34.56ZM227.04 30.68C223.173 30.68 219.56 31.2 216.2 32.24C215.613 32.24 215.027 32.0267 214.44 31.6C213.373 30.7467 212.547 29.84 211.96 28.88C211.4 27.8933 211.12 27.2267 211.12 26.88C211.12 26.5333 211.267 26.36 211.56 26.36C211.88 26.36 212.067 26.4 212.12 26.48C212.2 26.56 212.4 26.7733 212.72 27.12C213.573 28.0533 217 28.52 223 28.52C230.84 28.52 236.08 28.0267 238.72 27.04C238.933 26.96 239.147 26.92 239.36 26.92C239.573 26.92 239.96 27.0667 240.52 27.36C242.093 28.1067 242.88 28.7867 242.88 29.4C242.88 29.9867 242.573 30.4933 241.96 30.92C241.373 31.32 240.773 31.52 240.16 31.52C237.093 30.96 233.507 30.68 229.4 30.68H227.04ZM280.72 19C280.72 19.9333 280.267 20.4 279.36 20.4C278.48 20.4 277.92 20.0533 277.68 19.36L277.32 18.16C277.053 17.2533 276.56 16.4133 275.84 15.64C275.12 14.8667 274.76 14.4267 274.76 14.32V14.24C274.76 13.8667 275.08 13.68 275.72 13.68C275.827 13.68 275.96 13.7333 276.12 13.84C278.947 15.5467 280.467 17.0667 280.68 18.4C280.707 18.6133 280.72 18.8133 280.72 19ZM285.8 17.76C285.8 18.8267 285.253 19.36 284.16 19.36C283.413 19.36 282.92 19.0133 282.68 18.32L282.32 17.12C282.08 16.2933 281.6 15.48 280.88 14.68C280.16 13.8533 279.8 13.3867 279.8 13.28C279.8 12.9067 280.04 12.72 280.52 12.72C280.627 12.72 280.76 12.7467 280.92 12.8C284.173 14.5867 285.8 16.24 285.8 17.76ZM255.08 39.56C255.32 39.56 255.507 39.6533 255.64 39.84C255.773 40.0267 255.947 40.36 256.16 40.84C256.64 41.7733 257.187 42.24 257.8 42.24H257.84C258.853 42.24 259.627 42.1333 260.16 41.92C270.133 37.9733 277.32 31.6667 281.72 23C282.093 22.28 282.373 21.92 282.56 21.92C282.987 21.92 283.213 22.1867 283.24 22.72C283.24 22.9867 283.187 23.28 283.08 23.6C280.307 32.2667 273.227 39.3467 261.84 44.84C261.44 44.92 260.933 45.1733 260.32 45.6C259.707 46.0533 259.253 46.28 258.96 46.28C258.16 46.28 257.187 45.6267 256.04 44.32C254.92 43.0133 254.36 41.72 254.36 40.44C254.387 39.8533 254.627 39.56 255.08 39.56ZM268.08 19.72C268.08 21.3467 267.587 22.16 266.6 22.16C265.827 22.16 265.24 21.76 264.84 20.96C264.04 19.44 263.173 18.2667 262.24 17.44C261.307 16.6133 259.813 15.9067 257.76 15.32C257.28 15.2667 257.04 15.0267 257.04 14.6C257.067 14.2267 257.333 14.04 257.84 14.04C257.92 14.04 258 14.04 258.08 14.04L258.52 14.08C260.813 14.2667 263.373 15.2533 266.2 17.04C266.813 17.4133 267.28 17.7867 267.6 18.16C267.92 18.5333 268.08 19.0533 268.08 19.72ZM263.16 28.28C263.16 29.9067 262.667 30.72 261.68 30.72C260.907 30.72 260.307 30.3333 259.88 29.56C259.08 28.04 258.213 26.8667 257.28 26.04C256.347 25.2133 254.867 24.5067 252.84 23.92C252.573 23.8933 252.373 23.8133 252.24 23.68C252.133 23.5467 252.08 23.44 252.08 23.36V23.2C252.08 22.8267 252.347 22.64 252.88 22.64C252.96 22.64 253.04 22.64 253.12 22.64L253.6 22.68C255.893 22.8667 258.44 23.8533 261.24 25.64C261.853 26.0133 262.32 26.3867 262.64 26.76C262.987 27.1067 263.16 27.6133 263.16 28.28ZM294.8 30.28C294.933 29.08 295 27.9867 295 27C295 25.9867 294.947 25.1733 294.84 24.56C294.76 23.92 294.587 22.9067 294.32 21.52C294.053 20.1067 293.853 19.32 293.72 19.16C293.613 18.9733 293.387 18.7733 293.04 18.56C292.72 18.3467 292.56 18.16 292.56 18C292.56 17.84 292.64 17.6933 292.8 17.56C292.96 17.4 293.227 17.32 293.6 17.32C294 17.32 294.613 17.56 295.44 18.04C296.293 18.52 296.987 18.9733 297.52 19.4C303.893 19.24 310.173 18.6933 316.36 17.76L317.64 16.32C317.747 16.1867 317.88 16.12 318.04 16.12C318.2 16.12 318.387 16.1733 318.6 16.28C320.6 17.72 321.6 18.7467 321.6 19.36C321.6 19.5733 321.427 19.88 321.08 20.28C320.76 20.68 320.56 21.2 320.48 21.84C318.907 34.4533 312.613 42.32 301.6 45.44C301.387 45.4933 301.213 45.52 301.08 45.52C300.6 45.52 300.36 45.24 300.36 44.68C300.36 44.2533 300.827 43.8933 301.76 43.6C306.987 41.8667 311.147 38.28 314.24 32.84C315.92 29.8533 316.76 26.4133 316.76 22.52C316.76 21.8267 316.747 21.1733 316.72 20.56C308.987 20.7467 302.573 21.2267 297.48 22V23.6C297.587 24.88 297.8 26.24 298.12 27.68C298.467 29.0933 298.64 29.92 298.64 30.16C298.64 31.3067 298.36 32.16 297.8 32.72C297.587 32.9333 297.413 33.0267 297.28 33C295.627 33 294.8 32.0933 294.8 30.28ZM343.28 22.08C343.28 23.6533 342.8 24.44 341.84 24.44C341.067 24.44 340.467 24.04 340.04 23.24C338.627 20.4933 336.293 18.4133 333.04 17C332.613 16.92 332.387 16.7067 332.36 16.36C332.36 15.9333 332.613 15.72 333.12 15.72L333.84 15.8C335.04 16.0667 336.613 16.68 338.56 17.64C340.507 18.5733 341.92 19.5067 342.8 20.44C343.12 20.8133 343.28 21.36 343.28 22.08ZM361.64 21.04C361.853 21.04 361.96 21.2667 361.96 21.72C361.96 22.1733 361.92 22.52 361.84 22.76C358.72 29.2933 353.92 34.96 347.44 39.76C346.64 40.3733 344.613 41.6133 341.36 43.48L340.16 44.16C339.333 44.64 338.76 44.88 338.44 44.88C338.12 44.88 337.853 44.8133 337.64 44.68C336.573 44.2 335.667 43.5067 334.92 42.6C334.173 41.6933 333.667 40.8533 333.4 40.08C333.133 39.3067 333 38.8267 333 38.64L333.04 38.24C333.227 37.8667 333.44 37.68 333.68 37.68C333.92 37.68 334.093 37.76 334.2 37.92C334.333 38.08 334.493 38.3733 334.68 38.8C335.293 40 336.253 40.6 337.56 40.6C337.587 40.6 337.613 40.6 337.64 40.6C338.44 40.6 339.107 40.4533 339.64 40.16L344.48 38C346.293 36.7467 348.307 35.28 350.52 33.6C354.707 30.3467 358 26.6 360.4 22.36C360.907 21.48 361.32 21.04 361.64 21.04ZM13.56 93.12C13.0533 93.12 12.8 92.8667 12.8 92.36C12.8 92.0133 13.1733 91.7067 13.92 91.44C17.2267 90.2933 20.96 88.2133 25.12 85.2C29.28 82.16 32.6 78.7333 35.08 74.92C35.2933 74.6267 35.3867 74.32 35.36 74C35.36 73.68 35.28 73.4667 35.12 73.36C34.96 73.2267 34.7067 73.1067 34.36 73C34.04 72.8667 33.88 72.6933 33.88 72.48L34.68 72C35.7733 72 36.6267 72.2 37.24 72.6C39.24 73.9333 40.24 75 40.24 75.8C40.24 76.04 40.16 76.24 40 76.4C39.8667 76.5333 39.7067 76.6 39.52 76.6H39.32C39.1067 76.6 38.96 76.64 38.88 76.72C38.8 76.8 38.68 76.9467 38.52 77.16C36.3067 79.3733 33.5733 81.7867 30.32 84.4C31.7067 84.9333 32.4 85.4267 32.4 85.88C32.4 86.1467 32.1333 86.4667 31.6 86.84C31.0933 87.1867 30.84 87.5067 30.84 87.8C30.8133 90.5733 30.8 93.2667 30.8 95.88C30.8 98.4933 30.8267 99.92 30.88 100.16L31.32 101.92C31.4 102.24 31.44 102.56 31.44 102.88C31.44 103.2 31.3733 103.52 31.24 103.84C30.84 104.773 30.3733 105.24 29.84 105.24C29.44 105.24 29.0667 105.067 28.72 104.72C27.9467 103.84 27.5467 102.653 27.52 101.16C27.52 100.627 27.6 100.027 27.76 99.36C27.9467 98.6933 28.04 97.0133 28.04 94.32C28.04 91.6267 27.9333 88.9733 27.72 86.36C23.5067 89.3733 19.08 91.5467 14.44 92.88C13.9067 93.04 13.6133 93.12 13.56 93.12ZM57.64 74.16C56.8933 74.0533 56.52 73.8533 56.52 73.56C56.52 73.24 57.12 73.08 58.32 73.08C59.5467 73.08 60.7067 73.4133 61.8 74.08C62.8933 74.72 63.44 75.2267 63.44 75.6C63.44 75.8667 63.1733 76.1867 62.64 76.56C62.1333 76.9333 61.8667 77.36 61.84 77.84C61.7333 78.8533 61.68 81.08 61.68 84.52C64.16 84.7867 67.3733 85.6533 71.32 87.12C75.2667 88.56 77.92 89.8 79.28 90.84C79.84 91.2667 80.12 92.1333 80.12 93.44C80.12 94.72 79.6267 95.36 78.64 95.36C77.92 95.36 77.3067 95.0533 76.8 94.44C74.7467 91.9867 72.3867 90.1867 69.72 89.04C67.0533 87.8933 64.3733 87.0267 61.68 86.44C61.7067 95.3733 61.84 100.373 62.08 101.44C62.32 102.48 62.44 103.227 62.44 103.68C62.44 104.693 62.12 105.453 61.48 105.96C61.24 106.147 60.9467 106.24 60.6 106.24C60.2533 106.24 59.8667 105.987 59.44 105.48C58.7467 104.733 58.4 103.587 58.4 102.04C58.4 101.56 58.44 101.107 58.52 100.68C58.7867 99.08 58.92 95.3067 58.92 89.36C58.92 83.4133 58.8267 78.8667 58.64 75.72C58.56 74.76 58.2267 74.24 57.64 74.16ZM107.04 89.68C103.173 89.68 99.56 90.2 96.2 91.24C95.6133 91.24 95.0267 91.0267 94.44 90.6C93.3733 89.7467 92.5467 88.84 91.96 87.88C91.4 86.8933 91.12 86.2267 91.12 85.88C91.12 85.5333 91.2667 85.36 91.56 85.36C91.88 85.36 92.0667 85.4 92.12 85.48C92.2 85.56 92.4 85.7733 92.72 86.12C93.5733 87.0533 97 87.52 103 87.52C110.84 87.52 116.08 87.0267 118.72 86.04C118.933 85.96 119.147 85.92 119.36 85.92C119.573 85.92 119.96 86.0667 120.52 86.36C122.093 87.1067 122.88 87.7867 122.88 88.4C122.88 88.9867 122.573 89.4933 121.96 89.92C121.373 90.32 120.773 90.52 120.16 90.52C117.093 89.96 113.507 89.68 109.4 89.68H107.04ZM137.84 99.56L155.68 98.28C155.76 95.32 155.8 92.3467 155.8 89.36L141.88 90.8L141.08 91.04C140.12 91.36 139.507 91.52 139.24 91.52C138.973 91.52 138.4 91.1333 137.52 90.36C135.547 88.7867 134.56 87.52 134.56 86.56C134.56 86.2133 134.693 86.04 134.96 86.04C135.253 86.04 135.64 86.3067 136.12 86.84C136.6 87.3467 137.187 87.7067 137.88 87.92C138.6 88.1333 140.373 88.24 143.2 88.24L155.8 86.88C156.2 82.8267 156.4 80.6267 156.4 80.28V79.68L156.32 79.2L155.64 79.12C152.2 79.3867 149.107 79.5867 146.36 79.72C143.613 79.8533 141.56 80.0133 140.2 80.2L139.4 80.48C138.493 80.8 137.827 80.96 137.4 80.96C136.787 80.8267 135.88 80.1733 134.68 79C133.48 77.8267 132.88 76.92 132.88 76.28L133.44 75.68C133.627 75.68 133.773 75.7333 133.88 75.84C134.013 75.92 134.347 76.1733 134.88 76.6C135.84 77.3733 138.347 77.7733 142.4 77.8C143.147 77.8 143.907 77.7733 144.68 77.72C148.467 77.6933 152.173 77.2267 155.8 76.32C156.36 75.44 156.8 74.9867 157.12 74.96C157.44 74.96 158.107 75.3067 159.12 76C160.133 76.6667 160.64 77.2 160.64 77.6C160.64 77.8133 160.453 78.16 160.08 78.64C159.707 79.0933 159.467 79.56 159.36 80.04C159.253 80.4933 159.12 81.52 158.96 83.12L158.44 88.32C158.28 89.92 158.2 91.2667 158.2 92.36C158.2 93.4267 158.2 94.6133 158.2 95.92C158.227 97.2 158.253 98.1067 158.28 98.64C158.333 99.1733 158.453 99.7733 158.64 100.44C158.827 101.107 158.92 101.547 158.92 101.76C158.92 101.973 158.88 102.2 158.8 102.44C158.747 102.653 158.467 103.04 157.96 103.6C157.48 104.133 156.96 104.4 156.4 104.4C155.867 104.4 155.587 104.187 155.56 103.76C155.427 103.147 155.36 102.587 155.36 102.08V100.96C155.307 100.88 154.8 100.84 153.84 100.84C152.907 100.84 150.107 101.013 145.44 101.36C143.067 101.36 140.893 101.68 138.92 102.32C138.013 102.613 137.467 102.773 137.28 102.8C136.48 102.8 135.667 102.4 134.84 101.6C133.347 100.08 132.52 99.1467 132.36 98.8C132.227 98.4267 132.16 98.16 132.16 98C132.16 97.6533 132.307 97.48 132.6 97.48C132.92 97.48 133.307 97.7333 133.76 98.24C134.587 99.12 135.667 99.56 137 99.56H137.84ZM187.04 89.68C183.173 89.68 179.56 90.2 176.2 91.24C175.613 91.24 175.027 91.0267 174.44 90.6C173.373 89.7467 172.547 88.84 171.96 87.88C171.4 86.8933 171.12 86.2267 171.12 85.88C171.12 85.5333 171.267 85.36 171.56 85.36C171.88 85.36 172.067 85.4 172.12 85.48C172.2 85.56 172.4 85.7733 172.72 86.12C173.573 87.0533 177 87.52 183 87.52C190.84 87.52 196.08 87.0267 198.72 86.04C198.933 85.96 199.147 85.92 199.36 85.92C199.573 85.92 199.96 86.0667 200.52 86.36C202.093 87.1067 202.88 87.7867 202.88 88.4C202.88 88.9867 202.573 89.4933 201.96 89.92C201.373 90.32 200.773 90.52 200.16 90.52C197.093 89.96 193.507 89.68 189.4 89.68H187.04ZM237 80C237.48 79.4133 237.787 79.0933 237.92 79.04C238.053 78.96 238.187 78.92 238.32 78.92C238.453 78.92 238.76 79.1067 239.24 79.48C240.813 80.6533 241.6 81.6133 241.6 82.36C241.6 82.6267 241.467 82.8667 241.2 83.08C240.933 83.2933 240.787 83.4667 240.76 83.6L240.24 87.92C240 89.28 239.733 91.2 239.44 93.68C239.147 96.16 238.96 97.5867 238.88 97.96C238.24 100.973 237.12 103.013 235.52 104.08C234.827 104.533 234.24 104.76 233.76 104.76C233.307 104.76 232.92 104.653 232.6 104.44C232.28 104.227 232.12 104 232.12 103.76C232.12 103.52 232.187 103.24 232.32 102.92C232.48 102.573 232.56 102.28 232.56 102.04C232.56 100.76 231.413 99.28 229.12 97.6L227.84 96.68C227.36 96.3333 227.12 96.0667 227.12 95.88C227.12 95.5333 227.28 95.36 227.6 95.36C227.973 95.36 228.693 95.7067 229.76 96.4L232.6 98.32C233.427 98.88 234.107 99.2 234.64 99.28C235.04 98.9867 235.253 98.8133 235.28 98.76C235.947 97.8 236.4 96.7467 236.64 95.6C236.88 94.4533 237.093 92.84 237.28 90.76C237.493 88.6533 237.6 87 237.6 85.8C237.6 84.6 237.52 83.5733 237.36 82.72C236.667 82.5867 236.2 82.52 235.96 82.52C235.747 82.52 232.96 82.9867 227.6 83.92C227.253 87.3067 225.747 91.0133 223.08 95.04C220.413 99.04 217.413 102.013 214.08 103.96C213.6 104.227 213.147 104.36 212.72 104.36C212.293 104.387 212.027 104.307 211.92 104.12C211.84 103.96 211.8 103.827 211.8 103.72C211.8 103.32 212.28 102.827 213.24 102.24C216.707 100.08 219.547 96.8667 221.76 92.6C223.227 89.8 224.107 87.1467 224.4 84.64C223.067 84.96 221.72 85.2933 220.36 85.64L217.96 86.36L216.04 86.28C215.4 85.9333 214.64 85.32 213.76 84.44C212.907 83.5333 212.48 82.7867 212.48 82.2C212.48 81.9333 212.533 81.64 212.64 81.32C212.773 80.9733 213.013 80.8 213.36 80.8C213.707 80.8 213.947 80.9867 214.08 81.36L214.36 82.2C214.787 82.6 215.733 83.04 217.2 83.52L220 83.4L224.76 82.48C224.973 81.2267 225.08 80.2267 225.08 79.48C225.08 78.7333 225.08 78.28 225.08 78.12V76.36C225.08 75.32 224.72 74.6667 224 74.4C223.28 74.1333 222.893 73.9733 222.84 73.92C222.787 73.8667 222.76 73.8 222.76 73.72C222.76 73.32 223.093 73.12 223.76 73.12C224.427 73.12 225.36 73.2667 226.56 73.56C227.787 73.8267 228.787 74.2667 229.56 74.88C229.773 75.04 229.88 75.2133 229.88 75.4C229.88 75.56 229.693 75.76 229.32 76C228.973 76.2133 228.787 76.4133 228.76 76.6C228.2 79.16 227.92 80.9333 227.92 81.92C228.64 81.7867 231.667 81.1467 237 80ZM277.28 79.08C277.28 80.0133 276.827 80.48 275.92 80.48C275.04 80.48 274.48 80.1333 274.24 79.44L273.88 78.24C273.613 77.3333 273.12 76.4933 272.4 75.72C271.68 74.9467 271.32 74.5067 271.32 74.4V74.32C271.32 73.9467 271.64 73.76 272.28 73.76C272.387 73.76 272.52 73.8133 272.68 73.92C275.507 75.6267 277.027 77.1467 277.24 78.48C277.267 78.6933 277.28 78.8933 277.28 79.08ZM282.36 77.84C282.36 78.9067 281.813 79.44 280.72 79.44C279.973 79.44 279.48 79.0933 279.24 78.4L278.88 77.2C278.64 76.3733 278.16 75.56 277.44 74.76C276.72 73.9333 276.36 73.4667 276.36 73.36C276.36 72.9867 276.6 72.8 277.08 72.8C277.187 72.8 277.32 72.8267 277.48 72.88C280.733 74.6667 282.36 76.32 282.36 77.84ZM257.64 74.16C256.893 74.0533 256.52 73.8533 256.52 73.56C256.52 73.24 257.12 73.08 258.32 73.08C259.547 73.08 260.707 73.4133 261.8 74.08C262.893 74.72 263.44 75.2267 263.44 75.6C263.44 75.8667 263.173 76.1867 262.64 76.56C262.133 76.9333 261.867 77.36 261.84 77.84C261.733 78.8533 261.68 81.08 261.68 84.52C264.16 84.7867 267.373 85.6533 271.32 87.12C275.267 88.56 277.92 89.8 279.28 90.84C279.84 91.2667 280.12 92.1333 280.12 93.44C280.12 94.72 279.627 95.36 278.64 95.36C277.92 95.36 277.307 95.0533 276.8 94.44C274.747 91.9867 272.387 90.1867 269.72 89.04C267.053 87.8933 264.373 87.0267 261.68 86.44C261.707 95.3733 261.84 100.373 262.08 101.44C262.32 102.48 262.44 103.227 262.44 103.68C262.44 104.693 262.12 105.453 261.48 105.96C261.24 106.147 260.947 106.24 260.6 106.24C260.253 106.24 259.867 105.987 259.44 105.48C258.747 104.733 258.4 103.587 258.4 102.04C258.4 101.56 258.44 101.107 258.52 100.68C258.787 99.08 258.92 95.3067 258.92 89.36C258.92 83.4133 258.827 78.8667 258.64 75.72C258.56 74.76 258.227 74.24 257.64 74.16ZM307.04 89.68C303.173 89.68 299.56 90.2 296.2 91.24C295.613 91.24 295.027 91.0267 294.44 90.6C293.373 89.7467 292.547 88.84 291.96 87.88C291.4 86.8933 291.12 86.2267 291.12 85.88C291.12 85.5333 291.267 85.36 291.56 85.36C291.88 85.36 292.067 85.4 292.12 85.48C292.2 85.56 292.4 85.7733 292.72 86.12C293.573 87.0533 297 87.52 303 87.52C310.84 87.52 316.08 87.0267 318.72 86.04C318.933 85.96 319.147 85.92 319.36 85.92C319.573 85.92 319.96 86.0667 320.52 86.36C322.093 87.1067 322.88 87.7867 322.88 88.4C322.88 88.9867 322.573 89.4933 321.96 89.92C321.373 90.32 320.773 90.52 320.16 90.52C317.093 89.96 313.507 89.68 309.4 89.68H307.04ZM355.84 88.84C355.84 88.4133 356 88.2 356.32 88.2C357.013 88.2 357.987 88.9067 359.24 90.32C362.147 93.5467 363.6 96.1333 363.6 98.08C363.6 100.027 362.947 101 361.64 101H361.6C361.2 100.973 360.88 100.48 360.64 99.52C359.467 94.72 357.907 91.2933 355.96 89.24C355.88 89.16 355.84 89.0267 355.84 88.84ZM329.72 101.08C329.4 101.08 329.24 100.867 329.24 100.44C329.24 100.307 329.347 100.053 329.56 99.68C331.773 95.7333 333.24 91.8267 333.96 87.96C335.933 88.5733 337.547 89.28 338.8 90.08L336.72 91.04C335.2 94.48 333.067 97.8 330.32 101C330.133 101.053 329.933 101.08 329.72 101.08ZM332.12 76.28C332.04 76.2 332 76.1333 332 76.08C332 76 332.107 75.96 332.32 75.96C332.56 75.96 333.053 76.0267 333.8 76.16C334.573 76.2933 335.973 76.3733 338 76.4H345.16C345.16 75.0933 345.16 73.7867 345.16 72.48L344.96 70.72V70.52C344.96 70.4667 345.093 70.44 345.36 70.44C345.627 70.44 346.387 70.5333 347.64 70.72C348.92 70.9067 349.56 71.1067 349.56 71.32C349.56 71.4533 349.36 71.64 348.96 71.88C348.56 72.0933 348.36 72.3333 348.36 72.6V76.4H356.04L358.2 73.68C360.493 75.7867 361.64 76.8667 361.64 76.92C361.64 77.2133 361.32 77.36 360.68 77.36H348.36V83.96H359.76C359.787 83.96 360.52 83.0533 361.96 81.24C364.253 83.2133 365.4 84.28 365.4 84.44C365.4 84.76 365.08 84.92 364.44 84.92H352.84L352.8 104C352.8 104.587 352.48 105.187 351.84 105.8C351.2 106.44 350.507 106.76 349.76 106.76C349.493 106.76 349.24 106.653 349 106.44C346.867 104.547 344.613 103.547 342.24 103.44C341.867 103.36 341.68 103.227 341.68 103.04C341.68 102.853 341.84 102.76 342.16 102.76L348.8 103.4C349.333 103.4 349.6 103.187 349.6 102.76C349.6 96.8133 349.613 90.8667 349.64 84.92H344.4V90.32C344 98.64 340.547 104.027 334.04 106.48C333.827 106.56 333.627 106.6 333.44 106.6C333.253 106.6 333.093 106.493 332.96 106.28C332.853 106.093 332.92 105.76 333.16 105.28C338.52 102.08 341.2 96.8133 341.2 89.48V84.92H331.84L329.48 85.2C328.893 84.32 328.6 83.8 328.6 83.64C328.6 83.5333 328.693 83.4933 328.88 83.52C329.093 83.52 329.613 83.5867 330.44 83.72C331.293 83.8533 332.733 83.9333 334.76 83.96H345.12C345.12 81.7733 345.133 79.5733 345.16 77.36H335.68L333.32 77.64L332.12 76.28ZM401.88 102.56V75.12C401.88 74.7733 401.8 74.48 401.64 74.24H392.12C391.48 74.24 390.6 74.4267 389.48 74.8L387.88 73.28L388.2 72.84C389.747 73.08 391.427 73.2133 393.24 73.24H400.72L403.2 71.12C403.68 71.12 404.293 71.48 405.04 72.2C405.813 72.92 406.2 73.5067 406.2 73.96L404.92 75.76V103.8C404.92 104.387 404.6 104.987 403.96 105.6C403.32 106.24 402.627 106.56 401.88 106.56C401.827 106.56 401.387 106.213 400.56 105.52C399.733 104.827 397.72 104.133 394.52 103.44C394.147 103.36 393.96 103.2 393.96 102.96C393.96 102.693 394.12 102.56 394.44 102.56L401.08 103.2C401.613 103.2 401.88 102.987 401.88 102.56ZM388.04 79C387.747 78.84 387.653 78.6133 387.76 78.32C387.893 78 388.213 77.92 388.72 78.08C394.773 80.0267 397.827 82.32 397.88 84.96C397.88 85.36 397.8 85.7867 397.64 86.24C397.48 86.6933 397.213 87.0133 396.84 87.2C396.787 87.2267 396.733 87.24 396.68 87.24C396.36 87.24 395.933 86.8533 395.4 86.08C393.613 83.0667 391.16 80.7067 388.04 79ZM399.56 87.28C399.773 86.9867 399.96 86.8267 400.12 86.8C400.28 86.7733 400.44 86.76 400.6 86.76C400.76 86.76 400.88 86.8533 400.96 87.04C401.04 87.2 401.08 87.3467 401.08 87.48V87.68C397.453 92.5867 394.36 96.2 391.8 98.52C391.693 99.9333 391.6 100.653 391.52 100.68L391.4 100.72C390.813 100.72 389.533 99.5067 387.56 97.08C392.52 94.7333 396.52 91.4667 399.56 87.28ZM383.32 102.56V75.12C383.32 74.7733 383.24 74.48 383.08 74.24H373.56C372.92 74.24 372.04 74.4267 370.92 74.8L369.32 73.28L369.64 72.84C371.187 73.08 372.867 73.2133 374.68 73.24H382.2L384.68 71.12C385.16 71.12 385.773 71.48 386.52 72.2C387.267 72.92 387.64 73.5067 387.64 73.96L386.36 75.76V103.8C386.36 104.387 386.04 104.987 385.4 105.6C384.76 106.24 384.067 106.56 383.32 106.56C383.267 106.56 382.827 106.213 382 105.52C381.173 104.827 379.16 104.133 375.96 103.44C375.587 103.36 375.4 103.2 375.4 102.96C375.4 102.693 375.56 102.56 375.88 102.56L382.52 103.2C383.053 103.2 383.32 102.987 383.32 102.56ZM369.48 79C369.16 78.84 369.067 78.6133 369.2 78.32C369.28 78.1067 369.453 78 369.72 78C369.853 78 370.013 78.0267 370.2 78.08C376.28 80.0267 379.32 82.32 379.32 84.96C379.32 85.36 379.24 85.7867 379.08 86.24C378.92 86.6933 378.653 87.0133 378.28 87.2C378.227 87.2267 378.173 87.24 378.12 87.24C377.8 87.24 377.373 86.8533 376.84 86.08C374.893 82.8533 372.44 80.4933 369.48 79ZM381 87.28C381.213 86.9867 381.4 86.8267 381.56 86.8C381.72 86.7733 381.88 86.76 382.04 86.76C382.2 86.76 382.32 86.8533 382.4 87.04C382.48 87.2 382.52 87.3467 382.52 87.48V87.68C378.893 92.5867 375.8 96.2 373.24 98.52C373.133 99.9333 373.053 100.653 373 100.68L372.84 100.72C372.253 100.72 370.973 99.5067 369 97.08C373.853 94.7867 377.853 91.52 381 87.28ZM440.8 82.08C443.333 83.7067 444.6 84.76 444.6 85.24C444.6 85.5067 444.293 85.64 443.68 85.64H430.92V92.76H437.04C437.387 92.6 437.84 92.2133 438.4 91.6C438.987 90.9867 439.373 90.68 439.56 90.68C440.013 90.68 440.72 91.1067 441.68 91.96C442.667 92.7867 443.16 93.4267 443.16 93.88C443.16 94.04 442.88 94.28 442.32 94.6C441.76 94.92 441.48 95.16 441.48 95.32V102.32C441.64 104.453 441.72 105.613 441.72 105.8C441.667 106.253 440.707 106.52 438.84 106.6C438.813 106.6 438.8 106.6 438.8 106.6C438.293 106.6 438.04 106.253 438.04 105.56C438.04 104.893 438.093 104.187 438.2 103.44H421.88L422.04 105.64C422.04 106.28 421.093 106.6 419.2 106.6C418.72 106.6 418.453 106.28 418.4 105.64L418.6 102.32V93.28C418.6 93.1467 418.533 92.5467 418.4 91.48C418.373 91.2667 418.413 91.16 418.52 91.16L422.64 92.76H427.68V80.04C427.68 79.2667 427.64 78.72 427.56 78.4C427.48 78.08 427.547 77.92 427.76 77.92C428.133 77.92 428.947 78.0267 430.2 78.24C431.48 78.4267 432.12 78.6267 432.12 78.84C432.12 78.9733 431.92 79.16 431.52 79.4C431.12 79.64 430.92 79.8933 430.92 80.16V84.64H438.52L440.8 82.08ZM438 93.72H421.88C421.88 94.0133 421.867 94.1733 421.84 94.2V102.48H438.24V94.64C438.24 94.2667 438.16 93.96 438 93.72ZM411.8 76L411.6 74.12C411.6 74.0133 411.64 73.96 411.72 73.96C411.8 73.96 412.24 74.1333 413.04 74.48C413.867 74.8 414.787 75.2267 415.8 75.76H426.48V71.92L426.28 70.12C426.253 69.9333 426.347 69.84 426.56 69.84C429.413 70.1067 430.853 70.4133 430.88 70.76C430.88 70.8933 430.68 71.08 430.28 71.32C429.88 71.5333 429.68 71.7733 429.68 72.04V75.76H439.24L441.16 73.56C443.453 75.1867 444.6 76.12 444.6 76.36C444.6 76.6533 444.32 76.8 443.76 76.8H415.24C415.107 76.88 415.04 77.2133 415.04 77.8V85.48C415.04 98.36 412.96 105.467 408.8 106.8C408.4 106.8 408.2 106.587 408.2 106.16C408.2 105.973 408.347 105.667 408.64 105.24C410.747 102.333 411.8 96.84 411.8 88.76V76Z" fill="#111111"/>
</svg>
