<svg width="300" height="220" fill="none" xmlns="http://www.w3.org/2000/svg">
  <circle cx="90" cy="130" r="90" fill="#C44303" />
  <path fill-rule="evenodd" clip-rule="evenodd"
    d="M300 128v32H137.406c-8.836 0-16-7.163-16-16s7.164-16 16-16h93.647c8.837 0 16-7.163 16-16s-7.163-16-16-16H76c-8.837 0-16-7.163-16-16s7.163-16 16-16h116.792c8.837 0 16-7.163 16-16s-7.163-16-16-16H114.25c-8.832-.006-15.99-7.167-15.99-16 0-8.837 7.164-16 16.001-16h185.088c.422 1.225.651 2.54.651 3.91V32h-36.946c-8.837 0-16 7.163-16 16s7.163 16 16 16H300v32h-5.3c-8.836 0-16 7.163-16 16s7.164 16 16 16h5.3z"
    fill="#D9D9D9" />
</svg>