<svg width="550" height="264" viewBox="0 0 550 264" fill="none" xmlns="http://www.w3.org/2000/svg">
<path fill-rule="evenodd" clip-rule="evenodd" d="M92.5796 0C78.0174 0 66.2124 11.805 66.2124 26.3672C66.2124 40.9246 78.0097 52.7266 92.5653 52.7344L92.5796 52.7344H147.348L231.125 52.7344C245.687 52.7344 257.492 64.5394 257.492 79.1016C257.492 93.6638 245.687 105.469 231.125 105.469H147.348H59.0644H26.3672C11.805 105.469 0 117.274 0 131.836C0 146.398 11.805 158.203 26.3672 158.203H125.277H147.348H297.337C311.899 158.203 323.704 170.008 323.704 184.57C323.704 199.133 311.899 210.938 297.337 210.938H147.348L132.634 210.938C118.072 210.938 106.267 222.743 106.267 237.305C106.267 251.867 118.072 263.672 132.634 263.672H458.372C472.934 263.672 484.739 251.867 484.739 237.305C484.739 222.743 472.934 210.938 458.372 210.938L404.839 210.938C390.277 210.938 378.472 199.133 378.472 184.57C378.472 170.008 390.277 158.203 404.839 158.203H472.268H522.949C537.511 158.203 549.316 146.398 549.316 131.836C549.316 117.274 537.511 105.469 522.949 105.469H482.894H390.525H350.071C335.509 105.469 323.704 93.6638 323.704 79.1016C323.704 64.5394 335.509 52.7344 350.071 52.7344L390.525 52.7344H458.372L458.386 52.7344C472.942 52.7266 484.739 40.9246 484.739 26.3672C484.739 11.805 472.934 0 458.372 0H92.5796Z" fill="#D9D9D9"/>
</svg>
